<svg width="42" height="42" viewBox="0 0 42 42" fill="none" xmlns="http://www.w3.org/2000/svg">
<g filter="url(#filter0_d_2_169)">
<rect x="5.59998" y="2.5" width="30" height="30" rx="12" fill="white"/>
</g>
<path fill-rule="evenodd" clip-rule="evenodd" d="M13.744 20.3383C13.6333 20.2762 13.5265 20.2125 13.4235 20.1473C12.2598 19.4103 11.6 18.482 11.6 17.499C11.6 16.516 12.2598 15.5877 13.4235 14.8508C13.5265 14.7856 13.6333 14.7219 13.744 14.6596C13.7098 14.5374 13.6793 14.4167 13.6526 14.2979C13.3507 12.9539 13.5406 11.8308 14.2357 11.1357C14.9308 10.4406 16.0538 10.2507 17.3978 10.5527C17.5167 10.5794 17.6374 10.6099 17.7595 10.6441C17.8219 10.5333 17.8855 10.4266 17.9507 10.3237C18.6877 9.15982 19.616 8.5 20.599 8.5C21.582 8.5 22.5103 9.15982 23.2472 10.3237C23.3125 10.4266 23.3762 10.5333 23.4383 10.6441C23.5607 10.6099 23.6813 10.5794 23.8001 10.5527C25.1443 10.2507 26.2672 10.4407 26.9623 11.1357C27.6574 11.8308 27.8471 12.9539 27.5453 14.2979C27.5187 14.4167 27.4881 14.5374 27.4538 14.6596C27.5645 14.7219 27.6715 14.7856 27.7743 14.8508C28.9382 15.5877 29.5981 16.516 29.5981 17.499C29.5981 18.482 28.9382 19.4103 27.7743 20.1473C27.6715 20.2125 27.5645 20.2762 27.4538 20.3383C27.4881 20.4608 27.5187 20.5813 27.5453 20.7002C27.8471 22.0443 27.6574 23.1672 26.9623 23.8623C26.2672 24.5575 25.1443 24.7472 23.8001 24.4454C23.6813 24.4187 23.5607 24.3882 23.4383 24.3538C23.3762 24.4646 23.3125 24.5715 23.2472 24.6743C22.5103 25.8382 21.582 26.4982 20.599 26.4982C19.616 26.4982 18.6877 25.8382 17.9507 24.6743C17.8855 24.5715 17.8219 24.4646 17.7595 24.3538C17.6374 24.3882 17.5167 24.4187 17.3978 24.4454C16.0538 24.7472 14.9308 24.5575 14.2357 23.8623C13.5406 23.1672 13.3507 22.0443 13.6526 20.7002C13.6793 20.5813 13.7098 20.4608 13.744 20.3383ZM13.9443 15.2776C13.8827 15.3137 13.8225 15.3505 13.7636 15.3878C12.8203 15.9851 12.2356 16.7023 12.2356 17.499C12.2356 18.2958 12.8203 19.0129 13.7636 19.6104C13.8225 19.6475 13.8827 19.6843 13.9443 19.7206C14.2036 19.0119 14.5767 18.2612 15.0532 17.499C14.5767 16.7368 14.2036 15.9861 13.9443 15.2776ZM17.4643 11.2226C17.3951 11.2046 17.3265 11.1881 17.2586 11.1729C16.1691 10.9281 15.2486 11.0218 14.6851 11.5851C14.1218 12.1486 14.0281 13.0691 14.2728 14.1586C14.2881 14.2265 14.3046 14.2952 14.3225 14.3643C15.007 14.0465 15.8016 13.7795 16.6775 13.5775C16.8795 12.7016 17.1465 11.907 17.4643 11.2226ZM22.8206 10.8444C22.7843 10.7827 22.7475 10.7226 22.7103 10.6636C22.1129 9.72035 21.3957 9.13558 20.599 9.13558C19.8022 9.13558 19.0851 9.72035 18.4878 10.6636C18.4505 10.7226 18.4137 10.7827 18.3775 10.8444C19.0861 11.1036 19.8368 11.4767 20.599 11.9532C21.3612 11.4767 22.1119 11.1036 22.8206 10.8444ZM26.8754 14.3643C26.8934 14.2952 26.91 14.2265 26.9253 14.1586C27.1699 13.0691 27.0762 12.1486 26.5129 11.5851C25.9495 11.0218 25.0289 10.9281 23.9394 11.1729C23.8715 11.1881 23.8029 11.2046 23.7337 11.2226C24.0515 11.907 24.3185 12.7016 24.5205 13.5775C25.3964 13.7795 26.191 14.0465 26.8754 14.3643ZM27.2536 19.7206C27.3153 19.6843 27.3756 19.6475 27.4344 19.6104C28.3777 19.0129 28.9624 18.2958 28.9624 17.499C28.9624 16.7023 28.3777 15.9851 27.4344 15.3878C27.3756 15.3505 27.3153 15.3137 27.2536 15.2776C26.9944 15.9861 26.6214 16.7368 26.1449 17.499C26.6214 18.2612 26.9944 19.0119 27.2536 19.7206ZM23.7337 23.7755C23.8029 23.7934 23.8715 23.81 23.9394 23.8253C25.0289 24.0699 25.9495 23.9764 26.5129 23.4129C27.0764 22.8495 27.1699 21.9289 26.9253 20.8394C26.91 20.7715 26.8934 20.7029 26.8754 20.6337C26.191 20.9515 25.3964 21.2185 24.5205 21.4205C24.3185 22.2964 24.0515 23.091 23.7337 23.7755ZM18.3775 24.1537C18.4137 24.2153 18.4505 24.2755 18.4878 24.3344C19.0851 25.2777 19.8022 25.8625 20.599 25.8625C21.3957 25.8625 22.1129 25.2777 22.7103 24.3344C22.7475 24.2755 22.7843 24.2153 22.8206 24.1537C22.1119 23.8944 21.3612 23.5214 20.599 23.0449C19.8368 23.5214 19.0861 23.8944 18.3775 24.1537ZM14.3225 20.6337C14.3046 20.7029 14.2881 20.7715 14.2728 20.8394C14.0281 21.9289 14.1218 22.8495 14.6851 23.4129C15.2486 23.9764 16.1691 24.0699 17.2586 23.8253C17.3265 23.81 17.3951 23.7934 17.4643 23.7755C17.1465 23.091 16.8795 22.2964 16.6775 21.4205C15.8016 21.2185 15.007 20.9515 14.3225 20.6337ZM16.5359 14.2632C15.7844 14.453 15.1018 14.6941 14.5107 14.9771C14.7287 15.5953 15.0407 16.2484 15.4378 16.914C15.7101 16.5196 16.0091 16.1241 16.3332 15.7322C16.3812 15.2255 16.4495 14.7346 16.5359 14.2632ZM15.4378 18.084C15.0407 18.7496 14.7287 19.4027 14.5107 20.0209C15.1018 20.3039 15.7844 20.545 16.5359 20.7349C16.4495 20.2634 16.3812 19.7725 16.3332 19.266C16.0091 18.8738 15.7101 18.4785 15.4378 18.084ZM20.014 12.3378C19.3484 11.9407 18.6953 11.6287 18.0771 11.4107C17.7941 12.0018 17.553 12.6844 17.3631 13.4359C17.8346 13.3495 18.3255 13.2812 18.8321 13.2333C19.2241 12.9091 19.6195 12.6101 20.014 12.3378ZM23.8348 13.4359C23.645 12.6844 23.4039 12.0018 23.1209 11.4107C22.5027 11.6287 21.8496 11.9407 21.184 12.3378C21.5784 12.6101 21.9737 12.9091 22.366 13.2333C22.8725 13.2812 23.3634 13.3495 23.8348 13.4359ZM25.7602 16.914C26.1573 16.2484 26.4694 15.5953 26.6873 14.9771C26.096 14.6941 25.4137 14.453 24.6621 14.2632C24.7486 14.7346 24.8168 15.2255 24.8649 15.7322C25.1891 16.1241 25.4879 16.5196 25.7602 16.914ZM24.6621 20.7349C25.4137 20.545 26.096 20.3039 26.6873 20.0209C26.4694 19.4027 26.1573 18.7496 25.7602 18.084C25.4879 18.4785 25.1891 18.8738 24.8649 19.266C24.8168 19.7725 24.7486 20.2634 24.6621 20.7349ZM21.184 22.6602C21.8496 23.0573 22.5027 23.3695 23.1209 23.5874C23.4039 22.9961 23.645 22.3137 23.8348 21.5621C23.3634 21.6486 22.8725 21.7168 22.366 21.7649C21.9737 22.0891 21.5784 22.3879 21.184 22.6602ZM17.3631 21.5621C17.553 22.3137 17.7941 22.9961 18.0771 23.5874C18.6953 23.3695 19.3484 23.0573 20.014 22.6602C19.6195 22.3879 19.2241 22.0891 18.8321 21.7649C18.3255 21.7168 17.8346 21.6486 17.3631 21.5621ZM16.2615 16.8521C16.1017 17.0679 15.95 17.2837 15.8069 17.499C15.95 17.7143 16.1017 17.9302 16.2615 18.1459C16.2543 17.9323 16.2507 17.7165 16.2507 17.499C16.2507 17.2815 16.2543 17.0658 16.2615 16.8521ZM17.2105 14.1105C17.1595 14.3639 17.114 14.6239 17.0745 14.8894C17.2204 14.7333 17.3704 14.5781 17.5242 14.4242C17.6781 14.2704 17.8332 14.1204 17.9894 13.9745C17.7239 14.014 17.4639 14.0595 17.2105 14.1105ZM17.0745 20.1086C17.114 20.3743 17.1595 20.6341 17.2105 20.8875C17.4639 20.9386 17.7239 20.984 17.9894 21.0235C17.8332 20.8776 17.6781 20.7276 17.5242 20.5738C17.3704 20.42 17.2204 20.2649 17.0745 20.1086ZM20.599 12.7069C20.3837 12.85 20.1679 13.0017 19.9521 13.1615C20.1658 13.1543 20.3815 13.1507 20.599 13.1507C20.8165 13.1507 21.0323 13.1543 21.2459 13.1615C21.0302 13.0017 20.8143 12.85 20.599 12.7069ZM23.9875 14.1105C23.7341 14.0595 23.4742 14.014 23.2086 13.9745C23.3649 14.1204 23.52 14.2704 23.6738 14.4242C23.8276 14.5781 23.9776 14.7333 24.1235 14.8894C24.084 14.6239 24.0386 14.3639 23.9875 14.1105ZM25.3911 17.499C25.248 17.2837 25.0963 17.0679 24.9365 16.8521C24.9437 17.0658 24.9474 17.2815 24.9474 17.499C24.9474 17.7165 24.9437 17.9323 24.9365 18.1459C25.0963 17.9302 25.248 17.7143 25.3911 17.499ZM23.9875 20.8875C24.0386 20.6341 24.084 20.3743 24.1235 20.1086C23.9776 20.2649 23.8276 20.42 23.6738 20.5738C23.52 20.7276 23.3649 20.8776 23.2086 21.0235C23.4742 20.984 23.7341 20.9386 23.9875 20.8875ZM20.599 22.2911C20.8143 22.148 21.0302 21.9963 21.2459 21.8365C21.0323 21.8438 20.8165 21.8474 20.599 21.8474C20.3815 21.8474 20.1658 21.8438 19.9521 21.8365C20.1679 21.9963 20.3837 22.148 20.599 22.2911ZM19.2287 18.1387L18.7538 19.3035L18.1796 19.0694L19.5627 15.6768H20.1369L21.52 19.0694L20.9458 19.3035L20.4708 18.1387H19.2287ZM20.2181 17.5185L19.8497 16.615L19.4815 17.5185H20.2181ZM21.8391 15.6264H22.4592V19.2415H21.8391V15.6264Z" fill="#216ED7"/>
<defs>
<filter id="filter0_d_2_169" x="0.0999751" y="0.5" width="41" height="41" filterUnits="userSpaceOnUse" color-interpolation-filters="sRGB">
<feFlood flood-opacity="0" result="BackgroundImageFix"/>
<feColorMatrix in="SourceAlpha" type="matrix" values="0 0 0 0 0 0 0 0 0 0 0 0 0 0 0 0 0 0 127 0" result="hardAlpha"/>
<feOffset dy="3.5"/>
<feGaussianBlur stdDeviation="2.75"/>
<feColorMatrix type="matrix" values="0 0 0 0 0 0 0 0 0 0 0 0 0 0 0 0 0 0 0.02 0"/>
<feBlend mode="normal" in2="BackgroundImageFix" result="effect1_dropShadow_2_169"/>
<feBlend mode="normal" in="SourceGraphic" in2="effect1_dropShadow_2_169" result="shape"/>
</filter>
</defs>
</svg>
