<svg width="42" height="42" viewBox="0 0 42 42" fill="none" xmlns="http://www.w3.org/2000/svg">
<g filter="url(#filter0_d_2_195)">
<rect x="6" y="2.5" width="30" height="30" rx="12" fill="white"/>
</g>
<path d="M14.4375 21.0153C14.4375 21.4504 14.6104 21.8677 14.918 22.1754C15.2257 22.483 15.643 22.6559 16.0781 22.6559H25.9219C26.357 22.6559 26.7743 22.483 27.082 22.1754C27.3896 21.8677 27.5625 21.4504 27.5625 21.0153V16.5035H14.4375V21.0153ZM16.3711 18.7887C16.3711 18.5556 16.4637 18.332 16.6285 18.1672C16.7933 18.0024 17.0169 17.9098 17.25 17.9098H18.6562C18.8893 17.9098 19.1129 18.0024 19.2777 18.1672C19.4426 18.332 19.5352 18.5556 19.5352 18.7887V19.3746C19.5352 19.6077 19.4426 19.8313 19.2777 19.9961C19.1129 20.1609 18.8893 20.2535 18.6562 20.2535H17.25C17.0169 20.2535 16.7933 20.1609 16.6285 19.9961C16.4637 19.8313 16.3711 19.6077 16.3711 19.3746V18.7887Z" fill="#216ED7"/>
<path d="M25.9219 12.3429H16.0781C15.643 12.3429 15.2257 12.5157 14.918 12.8234C14.6104 13.1311 14.4375 13.5484 14.4375 13.9835V14.7452H27.5625V13.9835C27.5625 13.5484 27.3896 13.1311 27.082 12.8234C26.7743 12.5157 26.357 12.3429 25.9219 12.3429Z" fill="#216ED7"/>
<defs>
<filter id="filter0_d_2_195" x="0.5" y="0.5" width="41" height="41" filterUnits="userSpaceOnUse" color-interpolation-filters="sRGB">
<feFlood flood-opacity="0" result="BackgroundImageFix"/>
<feColorMatrix in="SourceAlpha" type="matrix" values="0 0 0 0 0 0 0 0 0 0 0 0 0 0 0 0 0 0 127 0" result="hardAlpha"/>
<feOffset dy="3.5"/>
<feGaussianBlur stdDeviation="2.75"/>
<feColorMatrix type="matrix" values="0 0 0 0 0 0 0 0 0 0 0 0 0 0 0 0 0 0 0.02 0"/>
<feBlend mode="normal" in2="BackgroundImageFix" result="effect1_dropShadow_2_195"/>
<feBlend mode="normal" in="SourceGraphic" in2="effect1_dropShadow_2_195" result="shape"/>
</filter>
</defs>
</svg>
