<svg width="16" height="16" viewBox="0 0 16 16" fill="none" xmlns="http://www.w3.org/2000/svg">
<path d="M8 1.90601C4.63994 1.90601 1.90625 4.6397 1.90625 7.99975C1.90625 11.3598 4.63994 14.0935 8 14.0935C11.3601 14.0935 14.0937 11.3598 14.0937 7.99975C14.0937 4.6397 11.3601 1.90601 8 1.90601ZM11.1714 5.95747L7.23389 10.645C7.19069 10.6964 7.13695 10.738 7.07629 10.7668C7.01564 10.7957 6.94949 10.8112 6.88232 10.8123H6.87441C6.80871 10.8122 6.74375 10.7984 6.68374 10.7716C6.62373 10.7449 6.57001 10.7058 6.52607 10.657L4.83857 8.78198C4.79572 8.73653 4.76238 8.68296 4.74052 8.62444C4.71866 8.56592 4.70872 8.50361 4.71128 8.44119C4.71384 8.37877 4.72886 8.3175 4.75544 8.26096C4.78202 8.20443 4.81964 8.15377 4.86608 8.11198C4.91251 8.07019 4.96684 8.03811 5.02585 8.01761C5.08487 7.99712 5.14738 7.98862 5.20973 7.99263C5.27207 7.99664 5.33298 8.01308 5.38889 8.04096C5.44479 8.06885 5.49455 8.10763 5.53525 8.15503L6.86211 9.62925L10.4536 5.35454C10.5342 5.2614 10.6482 5.2037 10.7709 5.19392C10.8937 5.18414 11.0153 5.22306 11.1096 5.30226C11.2039 5.38147 11.2633 5.49461 11.2748 5.61721C11.2864 5.73981 11.2492 5.86204 11.1714 5.95747Z" fill="#68D391"/>
</svg>
