<svg width="884" height="297" viewBox="0 0 884 297" fill="none" xmlns="http://www.w3.org/2000/svg">
<path d="M865.77 286.02H868.4C868.86 286.02 869.28 286.093 869.66 286.24C870.04 286.387 870.363 286.607 870.63 286.9C870.897 287.187 871.103 287.55 871.25 287.99C871.397 288.423 871.47 288.93 871.47 289.51C871.47 290.09 871.397 290.6 871.25 291.04C871.103 291.473 870.897 291.837 870.63 292.13C870.363 292.417 870.04 292.633 869.66 292.78C869.28 292.927 868.86 293 868.4 293H865.77V286.02ZM868.4 291.65C868.853 291.65 869.21 291.523 869.47 291.27C869.73 291.017 869.86 290.61 869.86 290.05V288.97C869.86 288.41 869.73 288.003 869.47 287.75C869.21 287.497 868.853 287.37 868.4 287.37H867.29V291.65H868.4ZM874.853 293.12C874.453 293.12 874.096 293.057 873.783 292.93C873.469 292.797 873.203 292.613 872.983 292.38C872.769 292.14 872.606 291.85 872.493 291.51C872.386 291.17 872.333 290.79 872.333 290.37C872.333 289.957 872.386 289.583 872.493 289.25C872.599 288.91 872.756 288.62 872.963 288.38C873.176 288.14 873.436 287.957 873.743 287.83C874.049 287.697 874.399 287.63 874.793 287.63C875.226 287.63 875.596 287.703 875.903 287.85C876.216 287.997 876.469 288.193 876.663 288.44C876.863 288.687 877.006 288.973 877.093 289.3C877.186 289.62 877.233 289.957 877.233 290.31V290.75H873.863V290.83C873.863 291.177 873.956 291.453 874.143 291.66C874.329 291.86 874.623 291.96 875.023 291.96C875.329 291.96 875.579 291.9 875.773 291.78C875.966 291.653 876.146 291.503 876.313 291.33L877.053 292.25C876.819 292.523 876.513 292.737 876.133 292.89C875.759 293.043 875.333 293.12 874.853 293.12ZM874.823 288.72C874.523 288.72 874.286 288.82 874.113 289.02C873.946 289.213 873.863 289.473 873.863 289.8V289.88H875.703V289.79C875.703 289.47 875.629 289.213 875.483 289.02C875.343 288.82 875.123 288.72 874.823 288.72ZM880.398 293.12C880.005 293.12 879.655 293.057 879.348 292.93C879.041 292.797 878.785 292.613 878.578 292.38C878.371 292.14 878.215 291.85 878.108 291.51C878.001 291.17 877.948 290.79 877.948 290.37C877.948 289.95 878.001 289.573 878.108 289.24C878.215 288.9 878.371 288.61 878.578 288.37C878.785 288.13 879.041 287.947 879.348 287.82C879.655 287.693 880.005 287.63 880.398 287.63C880.931 287.63 881.375 287.75 881.728 287.99C882.088 288.23 882.345 288.567 882.498 289L881.298 289.52C881.251 289.32 881.155 289.15 881.008 289.01C880.861 288.87 880.658 288.8 880.398 288.8C880.098 288.8 879.871 288.9 879.718 289.1C879.565 289.293 879.488 289.557 879.488 289.89V290.87C879.488 291.203 879.565 291.467 879.718 291.66C879.871 291.853 880.098 291.95 880.398 291.95C880.665 291.95 880.875 291.88 881.028 291.74C881.188 291.593 881.305 291.403 881.378 291.17L882.528 291.67C882.355 292.17 882.085 292.537 881.718 292.77C881.358 293.003 880.918 293.12 880.398 293.12Z" fill="#CBD5E0"/>
<path d="M791.9 289.7L791.23 288.3H791.2V293H789.77V286.02H791.43L793.34 289.32L794.01 290.72H794.04V286.02H795.47V293H793.81L791.9 289.7ZM799.056 293.12C798.67 293.12 798.323 293.057 798.016 292.93C797.716 292.803 797.46 292.62 797.246 292.38C797.04 292.14 796.88 291.85 796.766 291.51C796.653 291.17 796.596 290.79 796.596 290.37C796.596 289.95 796.653 289.57 796.766 289.23C796.88 288.89 797.04 288.603 797.246 288.37C797.46 288.13 797.716 287.947 798.016 287.82C798.323 287.693 798.67 287.63 799.056 287.63C799.443 287.63 799.786 287.693 800.086 287.82C800.393 287.947 800.65 288.13 800.856 288.37C801.07 288.603 801.233 288.89 801.346 289.23C801.46 289.57 801.516 289.95 801.516 290.37C801.516 290.79 801.46 291.17 801.346 291.51C801.233 291.85 801.07 292.14 800.856 292.38C800.65 292.62 800.393 292.803 800.086 292.93C799.786 293.057 799.443 293.12 799.056 293.12ZM799.056 291.95C799.35 291.95 799.576 291.86 799.736 291.68C799.896 291.5 799.976 291.243 799.976 290.91V289.84C799.976 289.507 799.896 289.25 799.736 289.07C799.576 288.89 799.35 288.8 799.056 288.8C798.763 288.8 798.536 288.89 798.376 289.07C798.216 289.25 798.136 289.507 798.136 289.84V290.91C798.136 291.243 798.216 291.5 798.376 291.68C798.536 291.86 798.763 291.95 799.056 291.95ZM803.613 293L801.893 287.75H803.353L804.003 289.87L804.493 291.77H804.573L805.063 289.87L805.693 287.75H807.093L805.373 293H803.613Z" fill="#CBD5E0"/>
<path d="M718.57 293.12C718.11 293.12 717.69 293.043 717.31 292.89C716.93 292.737 716.607 292.51 716.34 292.21C716.073 291.903 715.867 291.527 715.72 291.08C715.573 290.627 715.5 290.103 715.5 289.51C715.5 288.917 715.573 288.397 715.72 287.95C715.867 287.497 716.073 287.12 716.34 286.82C716.607 286.513 716.93 286.283 717.31 286.13C717.69 285.977 718.11 285.9 718.57 285.9C719.03 285.9 719.45 285.977 719.83 286.13C720.21 286.283 720.533 286.513 720.8 286.82C721.067 287.12 721.273 287.497 721.42 287.95C721.567 288.397 721.64 288.917 721.64 289.51C721.64 290.103 721.567 290.627 721.42 291.08C721.273 291.527 721.067 291.903 720.8 292.21C720.533 292.51 720.21 292.737 719.83 292.89C719.45 293.043 719.03 293.12 718.57 293.12ZM718.57 291.77C719.03 291.77 719.387 291.62 719.64 291.32C719.9 291.02 720.03 290.59 720.03 290.03V288.99C720.03 288.43 719.9 288 719.64 287.7C719.387 287.4 719.03 287.25 718.57 287.25C718.11 287.25 717.75 287.4 717.49 287.7C717.237 288 717.11 288.43 717.11 288.99V290.03C717.11 290.59 717.237 291.02 717.49 291.32C717.75 291.62 718.11 291.77 718.57 291.77ZM724.949 293.12C724.555 293.12 724.205 293.057 723.899 292.93C723.592 292.797 723.335 292.613 723.129 292.38C722.922 292.14 722.765 291.85 722.659 291.51C722.552 291.17 722.499 290.79 722.499 290.37C722.499 289.95 722.552 289.573 722.659 289.24C722.765 288.9 722.922 288.61 723.129 288.37C723.335 288.13 723.592 287.947 723.899 287.82C724.205 287.693 724.555 287.63 724.949 287.63C725.482 287.63 725.925 287.75 726.279 287.99C726.639 288.23 726.895 288.567 727.049 289L725.849 289.52C725.802 289.32 725.705 289.15 725.559 289.01C725.412 288.87 725.209 288.8 724.949 288.8C724.649 288.8 724.422 288.9 724.269 289.1C724.115 289.293 724.039 289.557 724.039 289.89V290.87C724.039 291.203 724.115 291.467 724.269 291.66C724.422 291.853 724.649 291.95 724.949 291.95C725.215 291.95 725.425 291.88 725.579 291.74C725.739 291.593 725.855 291.403 725.929 291.17L727.079 291.67C726.905 292.17 726.635 292.537 726.269 292.77C725.909 293.003 725.469 293.12 724.949 293.12ZM729.835 293C729.321 293 728.931 292.87 728.665 292.61C728.405 292.35 728.275 291.97 728.275 291.47V288.9H727.535V287.75H727.905C728.105 287.75 728.241 287.703 728.315 287.61C728.388 287.51 728.425 287.37 728.425 287.19V286.33H729.755V287.75H730.795V288.9H729.755V291.85H730.715V293H729.835Z" fill="#CBD5E0"/>
<path d="M642.53 293.12C641.917 293.12 641.397 293.017 640.97 292.81C640.543 292.597 640.18 292.323 639.88 291.99L640.88 290.98C641.353 291.513 641.937 291.78 642.63 291.78C643.003 291.78 643.28 291.703 643.46 291.55C643.64 291.397 643.73 291.193 643.73 290.94C643.73 290.747 643.677 290.587 643.57 290.46C643.463 290.327 643.247 290.237 642.92 290.19L642.23 290.1C641.49 290.007 640.947 289.783 640.6 289.43C640.26 289.077 640.09 288.607 640.09 288.02C640.09 287.707 640.15 287.42 640.27 287.16C640.39 286.9 640.56 286.677 640.78 286.49C641.007 286.303 641.28 286.16 641.6 286.06C641.927 285.953 642.297 285.9 642.71 285.9C643.237 285.9 643.7 285.983 644.1 286.15C644.5 286.317 644.843 286.56 645.13 286.88L644.12 287.9C643.953 287.707 643.75 287.55 643.51 287.43C643.277 287.303 642.98 287.24 642.62 287.24C642.28 287.24 642.027 287.3 641.86 287.42C641.693 287.54 641.61 287.707 641.61 287.92C641.61 288.16 641.673 288.333 641.8 288.44C641.933 288.547 642.147 288.623 642.44 288.67L643.13 288.78C643.85 288.893 644.383 289.117 644.73 289.45C645.077 289.777 645.25 290.243 645.25 290.85C645.25 291.183 645.19 291.49 645.07 291.77C644.95 292.05 644.773 292.29 644.54 292.49C644.313 292.69 644.03 292.847 643.69 292.96C643.35 293.067 642.963 293.12 642.53 293.12ZM648.62 293.12C648.22 293.12 647.864 293.057 647.55 292.93C647.237 292.797 646.97 292.613 646.75 292.38C646.537 292.14 646.374 291.85 646.26 291.51C646.154 291.17 646.1 290.79 646.1 290.37C646.1 289.957 646.154 289.583 646.26 289.25C646.367 288.91 646.524 288.62 646.73 288.38C646.944 288.14 647.204 287.957 647.51 287.83C647.817 287.697 648.167 287.63 648.56 287.63C648.994 287.63 649.364 287.703 649.67 287.85C649.984 287.997 650.237 288.193 650.43 288.44C650.63 288.687 650.774 288.973 650.86 289.3C650.954 289.62 651 289.957 651 290.31V290.75H647.63V290.83C647.63 291.177 647.724 291.453 647.91 291.66C648.097 291.86 648.39 291.96 648.79 291.96C649.097 291.96 649.347 291.9 649.54 291.78C649.734 291.653 649.914 291.503 650.08 291.33L650.82 292.25C650.587 292.523 650.28 292.737 649.9 292.89C649.527 293.043 649.1 293.12 648.62 293.12ZM648.59 288.72C648.29 288.72 648.054 288.82 647.88 289.02C647.714 289.213 647.63 289.473 647.63 289.8V289.88H649.47V289.79C649.47 289.47 649.397 289.213 649.25 289.02C649.11 288.82 648.89 288.72 648.59 288.72ZM652.046 287.75H653.526V288.63H653.576C653.649 288.337 653.816 288.097 654.076 287.91C654.342 287.723 654.646 287.63 654.986 287.63C655.652 287.63 656.156 287.863 656.496 288.33C656.836 288.797 657.006 289.477 657.006 290.37C657.006 291.263 656.836 291.947 656.496 292.42C656.156 292.887 655.652 293.12 654.986 293.12C654.812 293.12 654.649 293.093 654.496 293.04C654.342 292.993 654.202 292.927 654.076 292.84C653.956 292.747 653.852 292.64 653.766 292.52C653.679 292.393 653.616 292.26 653.576 292.12H653.526V295H652.046V287.75ZM654.496 291.92C654.776 291.92 655.006 291.823 655.186 291.63C655.372 291.43 655.466 291.163 655.466 290.83V289.92C655.466 289.587 655.372 289.323 655.186 289.13C655.006 288.93 654.776 288.83 654.496 288.83C654.216 288.83 653.982 288.9 653.796 289.04C653.616 289.173 653.526 289.36 653.526 289.6V291.15C653.526 291.39 653.616 291.58 653.796 291.72C653.982 291.853 654.216 291.92 654.496 291.92Z" fill="#CBD5E0"/>
<path d="M568.07 293L567.57 291.34H565.24L564.74 293H563.2L565.5 286.02H567.38L569.65 293H568.07ZM566.42 287.4H566.37L565.6 290.05H567.2L566.42 287.4ZM573.636 292.12H573.586C573.539 292.253 573.476 292.38 573.396 292.5C573.322 292.62 573.226 292.727 573.106 292.82C572.986 292.913 572.842 292.987 572.676 293.04C572.516 293.093 572.329 293.12 572.116 293.12C571.576 293.12 571.166 292.943 570.886 292.59C570.612 292.23 570.476 291.717 570.476 291.05V287.75H571.956V290.92C571.956 291.24 572.012 291.487 572.126 291.66C572.239 291.833 572.432 291.92 572.706 291.92C572.819 291.92 572.932 291.903 573.046 291.87C573.159 291.837 573.259 291.79 573.346 291.73C573.432 291.663 573.502 291.583 573.556 291.49C573.609 291.397 573.636 291.287 573.636 291.16V287.75H575.116V293H573.636V292.12ZM581.353 293.38C581.353 293.66 581.303 293.907 581.203 294.12C581.11 294.333 580.953 294.513 580.733 294.66C580.513 294.813 580.22 294.927 579.853 295C579.493 295.08 579.046 295.12 578.513 295.12C578.06 295.12 577.673 295.09 577.353 295.03C577.04 294.977 576.783 294.897 576.583 294.79C576.39 294.69 576.246 294.563 576.153 294.41C576.066 294.263 576.023 294.093 576.023 293.9C576.023 293.607 576.11 293.377 576.283 293.21C576.456 293.043 576.696 292.94 577.003 292.9V292.79C576.75 292.743 576.56 292.637 576.433 292.47C576.306 292.297 576.243 292.097 576.243 291.87C576.243 291.73 576.27 291.61 576.323 291.51C576.383 291.403 576.456 291.313 576.543 291.24C576.636 291.16 576.743 291.097 576.863 291.05C576.983 291.003 577.103 290.967 577.223 290.94V290.9C576.903 290.753 576.666 290.553 576.513 290.3C576.36 290.04 576.283 289.74 576.283 289.4C576.283 288.867 576.466 288.44 576.833 288.12C577.206 287.793 577.773 287.63 578.533 287.63C578.88 287.63 579.176 287.663 579.423 287.73V287.53C579.423 287.25 579.49 287.05 579.623 286.93C579.763 286.803 579.96 286.74 580.213 286.74H581.043V287.84H579.883V287.9C580.19 288.047 580.416 288.25 580.563 288.51C580.71 288.763 580.783 289.06 580.783 289.4C580.783 289.927 580.596 290.35 580.223 290.67C579.856 290.983 579.293 291.14 578.533 291.14C578.193 291.14 577.883 291.103 577.603 291.03C577.45 291.13 577.373 291.27 577.373 291.45C577.373 291.577 577.42 291.677 577.513 291.75C577.613 291.817 577.776 291.85 578.003 291.85H579.523C580.163 291.85 580.626 291.983 580.913 292.25C581.206 292.517 581.353 292.893 581.353 293.38ZM579.963 293.58C579.963 293.427 579.903 293.31 579.783 293.23C579.663 293.15 579.453 293.11 579.153 293.11H577.353C577.286 293.177 577.236 293.25 577.203 293.33C577.176 293.417 577.163 293.5 577.163 293.58C577.163 293.773 577.246 293.913 577.413 294C577.58 294.093 577.863 294.14 578.263 294.14H578.863C579.263 294.14 579.546 294.093 579.713 294C579.88 293.913 579.963 293.773 579.963 293.58ZM578.533 290.17C578.826 290.17 579.043 290.11 579.183 289.99C579.33 289.863 579.403 289.683 579.403 289.45V289.33C579.403 289.097 579.33 288.92 579.183 288.8C579.043 288.673 578.826 288.61 578.533 288.61C578.24 288.61 578.02 288.673 577.873 288.8C577.733 288.92 577.663 289.097 577.663 289.33V289.45C577.663 289.683 577.733 289.863 577.873 289.99C578.02 290.11 578.24 290.17 578.533 290.17Z" fill="#CBD5E0"/>
<path d="M496.36 286.02V290.98C496.36 291.3 496.307 291.593 496.2 291.86C496.1 292.12 495.95 292.343 495.75 292.53C495.55 292.71 495.307 292.853 495.02 292.96C494.74 293.06 494.42 293.11 494.06 293.11C493.713 293.11 493.407 293.063 493.14 292.97C492.88 292.877 492.653 292.743 492.46 292.57C492.273 292.397 492.12 292.19 492 291.95C491.88 291.71 491.797 291.443 491.75 291.15L493.17 290.87C493.283 291.477 493.573 291.78 494.04 291.78C494.26 291.78 494.447 291.71 494.6 291.57C494.76 291.43 494.84 291.21 494.84 290.91V287.24H492.72V286.02H496.36ZM500.876 292.12H500.826C500.779 292.253 500.716 292.38 500.636 292.5C500.563 292.62 500.466 292.727 500.346 292.82C500.226 292.913 500.083 292.987 499.916 293.04C499.756 293.093 499.569 293.12 499.356 293.12C498.816 293.12 498.406 292.943 498.126 292.59C497.853 292.23 497.716 291.717 497.716 291.05V287.75H499.196V290.92C499.196 291.24 499.253 291.487 499.366 291.66C499.479 291.833 499.673 291.92 499.946 291.92C500.059 291.92 500.173 291.903 500.286 291.87C500.399 291.837 500.499 291.79 500.586 291.73C500.673 291.663 500.743 291.583 500.796 291.49C500.849 291.397 500.876 291.287 500.876 291.16V287.75H502.356V293H500.876V292.12ZM505.203 293C504.696 293 504.323 292.877 504.083 292.63C503.85 292.383 503.733 292.027 503.733 291.56V285.6H505.213V291.85H505.873V293H505.203Z" fill="#CBD5E0"/>
<path d="M421.36 286.02V290.98C421.36 291.3 421.307 291.593 421.2 291.86C421.1 292.12 420.95 292.343 420.75 292.53C420.55 292.71 420.307 292.853 420.02 292.96C419.74 293.06 419.42 293.11 419.06 293.11C418.713 293.11 418.407 293.063 418.14 292.97C417.88 292.877 417.653 292.743 417.46 292.57C417.273 292.397 417.12 292.19 417 291.95C416.88 291.71 416.797 291.443 416.75 291.15L418.17 290.87C418.283 291.477 418.573 291.78 419.04 291.78C419.26 291.78 419.447 291.71 419.6 291.57C419.76 291.43 419.84 291.21 419.84 290.91V287.24H417.72V286.02H421.36ZM425.876 292.12H425.826C425.779 292.253 425.716 292.38 425.636 292.5C425.563 292.62 425.466 292.727 425.346 292.82C425.226 292.913 425.083 292.987 424.916 293.04C424.756 293.093 424.569 293.12 424.356 293.12C423.816 293.12 423.406 292.943 423.126 292.59C422.853 292.23 422.716 291.717 422.716 291.05V287.75H424.196V290.92C424.196 291.24 424.253 291.487 424.366 291.66C424.479 291.833 424.673 291.92 424.946 291.92C425.059 291.92 425.173 291.903 425.286 291.87C425.399 291.837 425.499 291.79 425.586 291.73C425.673 291.663 425.743 291.583 425.796 291.49C425.849 291.397 425.876 291.287 425.876 291.16V287.75H427.356V293H425.876V292.12ZM428.733 293V287.75H430.213V288.64H430.273C430.366 288.367 430.53 288.13 430.763 287.93C430.996 287.73 431.32 287.63 431.733 287.63C432.273 287.63 432.68 287.81 432.953 288.17C433.233 288.53 433.373 289.043 433.373 289.71V293H431.893V289.83C431.893 289.49 431.84 289.24 431.733 289.08C431.626 288.913 431.436 288.83 431.163 288.83C431.043 288.83 430.926 288.847 430.813 288.88C430.7 288.907 430.596 288.953 430.503 289.02C430.416 289.087 430.346 289.17 430.293 289.27C430.24 289.363 430.213 289.473 430.213 289.6V293H428.733Z" fill="#CBD5E0"/>
<path d="M345.99 288.42H345.96L345.45 289.44L344.09 291.91L342.76 289.45L342.23 288.35H342.2V293H340.77V286.02H342.38L344.09 289.29H344.11L345.8 286.02H347.42V293H345.99V288.42ZM352.763 293C352.497 293 352.273 292.917 352.093 292.75C351.92 292.583 351.81 292.36 351.763 292.08H351.703C351.623 292.42 351.447 292.68 351.173 292.86C350.9 293.033 350.563 293.12 350.163 293.12C349.637 293.12 349.233 292.98 348.953 292.7C348.673 292.42 348.533 292.05 348.533 291.59C348.533 291.037 348.733 290.627 349.133 290.36C349.54 290.087 350.09 289.95 350.783 289.95H351.613V289.62C351.613 289.367 351.547 289.167 351.413 289.02C351.28 288.867 351.057 288.79 350.743 288.79C350.45 288.79 350.217 288.853 350.043 288.98C349.87 289.107 349.727 289.25 349.613 289.41L348.733 288.63C348.947 288.317 349.213 288.073 349.533 287.9C349.86 287.72 350.3 287.63 350.853 287.63C351.6 287.63 352.16 287.793 352.533 288.12C352.907 288.447 353.093 288.923 353.093 289.55V291.85H353.583V293H352.763ZM350.713 292.09C350.96 292.09 351.17 292.037 351.343 291.93C351.523 291.823 351.613 291.65 351.613 291.41V290.79H350.893C350.313 290.79 350.023 290.987 350.023 291.38V291.53C350.023 291.723 350.083 291.867 350.203 291.96C350.323 292.047 350.493 292.09 350.713 292.09ZM357.699 287.75H359.079L357.059 293.81C356.926 294.217 356.736 294.517 356.489 294.71C356.249 294.903 355.902 295 355.449 295H354.529V293.85H355.519L355.699 293.27L353.859 287.75H355.329L356.099 290.2L356.479 291.72H356.539L356.929 290.2L357.699 287.75Z" fill="#CBD5E0"/>
<path d="M270.57 293L270.07 291.34H267.74L267.24 293H265.7L268 286.02H269.88L272.15 293H270.57ZM268.92 287.4H268.87L268.1 290.05H269.7L268.92 287.4ZM273.036 287.75H274.516V288.63H274.566C274.639 288.337 274.806 288.097 275.066 287.91C275.332 287.723 275.636 287.63 275.976 287.63C276.642 287.63 277.146 287.863 277.486 288.33C277.826 288.797 277.996 289.477 277.996 290.37C277.996 291.263 277.826 291.947 277.486 292.42C277.146 292.887 276.642 293.12 275.976 293.12C275.802 293.12 275.639 293.093 275.486 293.04C275.332 292.993 275.192 292.927 275.066 292.84C274.946 292.747 274.842 292.64 274.756 292.52C274.669 292.393 274.606 292.26 274.566 292.12H274.516V295H273.036V287.75ZM275.486 291.92C275.766 291.92 275.996 291.823 276.176 291.63C276.362 291.43 276.456 291.163 276.456 290.83V289.92C276.456 289.587 276.362 289.323 276.176 289.13C275.996 288.93 275.766 288.83 275.486 288.83C275.206 288.83 274.972 288.9 274.786 289.04C274.606 289.173 274.516 289.36 274.516 289.6V291.15C274.516 291.39 274.606 291.58 274.786 291.72C274.972 291.853 275.206 291.92 275.486 291.92ZM279.12 293V287.75H280.6V288.89H280.65C280.676 288.743 280.723 288.603 280.79 288.47C280.856 288.33 280.943 288.207 281.05 288.1C281.163 287.993 281.296 287.91 281.45 287.85C281.603 287.783 281.783 287.75 281.99 287.75H282.25V289.13H281.88C281.446 289.13 281.123 289.187 280.91 289.3C280.703 289.413 280.6 289.623 280.6 289.93V293H279.12Z" fill="#CBD5E0"/>
<path d="M196.49 288.42H196.46L195.95 289.44L194.59 291.91L193.26 289.45L192.73 288.35H192.7V293H191.27V286.02H192.88L194.59 289.29H194.61L196.3 286.02H197.92V293H196.49V288.42ZM203.263 293C202.997 293 202.773 292.917 202.593 292.75C202.42 292.583 202.31 292.36 202.263 292.08H202.203C202.123 292.42 201.947 292.68 201.673 292.86C201.4 293.033 201.063 293.12 200.663 293.12C200.137 293.12 199.733 292.98 199.453 292.7C199.173 292.42 199.033 292.05 199.033 291.59C199.033 291.037 199.233 290.627 199.633 290.36C200.04 290.087 200.59 289.95 201.283 289.95H202.113V289.62C202.113 289.367 202.047 289.167 201.913 289.02C201.78 288.867 201.557 288.79 201.243 288.79C200.95 288.79 200.717 288.853 200.543 288.98C200.37 289.107 200.227 289.25 200.113 289.41L199.233 288.63C199.447 288.317 199.713 288.073 200.033 287.9C200.36 287.72 200.8 287.63 201.353 287.63C202.1 287.63 202.66 287.793 203.033 288.12C203.407 288.447 203.593 288.923 203.593 289.55V291.85H204.083V293H203.263ZM201.213 292.09C201.46 292.09 201.67 292.037 201.843 291.93C202.023 291.823 202.113 291.65 202.113 291.41V290.79H201.393C200.813 290.79 200.523 290.987 200.523 291.38V291.53C200.523 291.723 200.583 291.867 200.703 291.96C200.823 292.047 200.993 292.09 201.213 292.09ZM205.077 293V287.75H206.557V288.89H206.607C206.634 288.743 206.68 288.603 206.747 288.47C206.814 288.33 206.9 288.207 207.007 288.1C207.12 287.993 207.254 287.91 207.407 287.85C207.56 287.783 207.74 287.75 207.947 287.75H208.207V289.13H207.837C207.404 289.13 207.08 289.187 206.867 289.3C206.66 289.413 206.557 289.623 206.557 289.93V293H205.077Z" fill="#CBD5E0"/>
<path d="M116.27 293V286.02H120.9V287.37H117.79V288.8H120.44V290.14H117.79V293H116.27ZM123.907 293.12C123.507 293.12 123.151 293.057 122.837 292.93C122.524 292.797 122.257 292.613 122.037 292.38C121.824 292.14 121.661 291.85 121.547 291.51C121.441 291.17 121.387 290.79 121.387 290.37C121.387 289.957 121.441 289.583 121.547 289.25C121.654 288.91 121.811 288.62 122.017 288.38C122.231 288.14 122.491 287.957 122.797 287.83C123.104 287.697 123.454 287.63 123.847 287.63C124.281 287.63 124.651 287.703 124.957 287.85C125.271 287.997 125.524 288.193 125.717 288.44C125.917 288.687 126.061 288.973 126.147 289.3C126.241 289.62 126.287 289.957 126.287 290.31V290.75H122.917V290.83C122.917 291.177 123.011 291.453 123.197 291.66C123.384 291.86 123.677 291.96 124.077 291.96C124.384 291.96 124.634 291.9 124.827 291.78C125.021 291.653 125.201 291.503 125.367 291.33L126.107 292.25C125.874 292.523 125.567 292.737 125.187 292.89C124.814 293.043 124.387 293.12 123.907 293.12ZM123.877 288.72C123.577 288.72 123.341 288.82 123.167 289.02C123.001 289.213 122.917 289.473 122.917 289.8V289.88H124.757V289.79C124.757 289.47 124.684 289.213 124.537 289.02C124.397 288.82 124.177 288.72 123.877 288.72ZM127.333 285.6H128.813V288.63H128.863C128.936 288.337 129.103 288.097 129.363 287.91C129.629 287.723 129.933 287.63 130.273 287.63C130.939 287.63 131.443 287.863 131.783 288.33C132.123 288.797 132.293 289.477 132.293 290.37C132.293 291.263 132.123 291.947 131.783 292.42C131.443 292.887 130.939 293.12 130.273 293.12C130.099 293.12 129.936 293.093 129.783 293.04C129.629 292.993 129.489 292.927 129.363 292.84C129.243 292.747 129.139 292.64 129.053 292.52C128.966 292.393 128.903 292.26 128.863 292.12H128.813V293H127.333V285.6ZM129.783 291.92C130.063 291.92 130.293 291.823 130.473 291.63C130.659 291.43 130.753 291.163 130.753 290.83V289.92C130.753 289.587 130.659 289.323 130.473 289.13C130.293 288.93 130.063 288.83 129.783 288.83C129.503 288.83 129.269 288.9 129.083 289.04C128.903 289.173 128.813 289.36 128.813 289.6V291.15C128.813 291.39 128.903 291.58 129.083 291.72C129.269 291.853 129.503 291.92 129.783 291.92Z" fill="#CBD5E0"/>
<path d="M45.8601 286.02V290.98C45.8601 291.3 45.8068 291.593 45.7001 291.86C45.6001 292.12 45.4501 292.343 45.2501 292.53C45.0501 292.71 44.8068 292.853 44.5201 292.96C44.2401 293.06 43.9201 293.11 43.5601 293.11C43.2135 293.11 42.9068 293.063 42.6401 292.97C42.3801 292.877 42.1535 292.743 41.9601 292.57C41.7735 292.397 41.6201 292.19 41.5001 291.95C41.3801 291.71 41.2968 291.443 41.2501 291.15L42.6701 290.87C42.7835 291.477 43.0735 291.78 43.5401 291.78C43.7601 291.78 43.9468 291.71 44.1001 291.57C44.2601 291.43 44.3401 291.21 44.3401 290.91V287.24H42.2201V286.02H45.8601ZM51.1561 293C50.8894 293 50.6661 292.917 50.4861 292.75C50.3127 292.583 50.2027 292.36 50.1561 292.08H50.0961C50.0161 292.42 49.8394 292.68 49.5661 292.86C49.2927 293.033 48.9561 293.12 48.5561 293.12C48.0294 293.12 47.6261 292.98 47.3461 292.7C47.0661 292.42 46.9261 292.05 46.9261 291.59C46.9261 291.037 47.1261 290.627 47.5261 290.36C47.9327 290.087 48.4827 289.95 49.1761 289.95H50.0061V289.62C50.0061 289.367 49.9394 289.167 49.8061 289.02C49.6727 288.867 49.4494 288.79 49.1361 288.79C48.8427 288.79 48.6094 288.853 48.4361 288.98C48.2627 289.107 48.1194 289.25 48.0061 289.41L47.1261 288.63C47.3394 288.317 47.6061 288.073 47.9261 287.9C48.2527 287.72 48.6927 287.63 49.2461 287.63C49.9927 287.63 50.5527 287.793 50.9261 288.12C51.2994 288.447 51.4861 288.923 51.4861 289.55V291.85H51.9761V293H51.1561ZM49.1061 292.09C49.3527 292.09 49.5627 292.037 49.7361 291.93C49.9161 291.823 50.0061 291.65 50.0061 291.41V290.79H49.2861C48.7061 290.79 48.4161 290.987 48.4161 291.38V291.53C48.4161 291.723 48.4761 291.867 48.5961 291.96C48.7161 292.047 48.8861 292.09 49.1061 292.09ZM52.9694 293V287.75H54.4494V288.64H54.5094C54.6028 288.367 54.7661 288.13 54.9994 287.93C55.2328 287.73 55.5561 287.63 55.9694 287.63C56.5094 287.63 56.9161 287.81 57.1894 288.17C57.4694 288.53 57.6094 289.043 57.6094 289.71V293H56.1294V289.83C56.1294 289.49 56.0761 289.24 55.9694 289.08C55.8628 288.913 55.6728 288.83 55.3994 288.83C55.2794 288.83 55.1628 288.847 55.0494 288.88C54.9361 288.907 54.8328 288.953 54.7394 289.02C54.6528 289.087 54.5828 289.17 54.5294 289.27C54.4761 289.363 54.4494 289.473 54.4494 289.6V293H52.9694Z" fill="#CBD5E0"/>
<path d="M14.0001 261.62C13.0868 261.62 12.4101 261.303 11.9701 260.67C11.5301 260.037 11.3101 259.15 11.3101 258.01C11.3101 256.87 11.5301 255.983 11.9701 255.35C12.4101 254.717 13.0868 254.4 14.0001 254.4C14.9135 254.4 15.5901 254.717 16.0301 255.35C16.4701 255.983 16.6901 256.87 16.6901 258.01C16.6901 259.15 16.4701 260.037 16.0301 260.67C15.5901 261.303 14.9135 261.62 14.0001 261.62ZM14.0001 260.35C14.4001 260.35 14.6768 260.203 14.8301 259.91C14.9835 259.617 15.0601 259.203 15.0601 258.67V257.35C15.0601 256.817 14.9835 256.403 14.8301 256.11C14.6768 255.817 14.4001 255.67 14.0001 255.67C13.6001 255.67 13.3235 255.817 13.1701 256.11C13.0168 256.403 12.9401 256.817 12.9401 257.35V258.67C12.9401 259.203 13.0168 259.617 13.1701 259.91C13.3235 260.203 13.6001 260.35 14.0001 260.35Z" fill="#CBD5E0"/>
<path d="M5.51018 211.5H0.570183V210.13L2.72018 208.29C2.91352 208.123 3.07685 207.973 3.21018 207.84C3.34352 207.7 3.45018 207.567 3.53018 207.44C3.61685 207.307 3.67685 207.177 3.71018 207.05C3.75018 206.923 3.77018 206.787 3.77018 206.64V206.5C3.77018 206.367 3.74352 206.25 3.69018 206.15C3.63685 206.05 3.56685 205.967 3.48018 205.9C3.39352 205.833 3.29352 205.783 3.18018 205.75C3.07352 205.717 2.96352 205.7 2.85018 205.7C2.68352 205.7 2.53685 205.727 2.41018 205.78C2.29018 205.833 2.18352 205.907 2.09018 206C2.00352 206.087 1.93018 206.19 1.87018 206.31C1.81018 206.423 1.76352 206.547 1.73018 206.68L0.420183 206.18C0.500183 205.94 0.610183 205.713 0.750183 205.5C0.890183 205.28 1.06352 205.09 1.27018 204.93C1.48352 204.763 1.73352 204.633 2.02018 204.54C2.30685 204.447 2.63018 204.4 2.99018 204.4C3.37018 204.4 3.70685 204.453 4.00018 204.56C4.29352 204.667 4.54018 204.813 4.74018 205C4.94685 205.187 5.10352 205.41 5.21018 205.67C5.31685 205.923 5.37018 206.2 5.37018 206.5C5.37018 206.8 5.32018 207.073 5.22018 207.32C5.12018 207.567 4.98352 207.8 4.81018 208.02C4.64352 208.233 4.44685 208.437 4.22018 208.63C3.99352 208.823 3.75685 209.02 3.51018 209.22L2.21018 210.24H5.51018V211.5ZM8.99628 211.62C8.08294 211.62 7.40628 211.303 6.96628 210.67C6.52628 210.037 6.30628 209.15 6.30628 208.01C6.30628 206.87 6.52628 205.983 6.96628 205.35C7.40628 204.717 8.08294 204.4 8.99628 204.4C9.90961 204.4 10.5863 204.717 11.0263 205.35C11.4663 205.983 11.6863 206.87 11.6863 208.01C11.6863 209.15 11.4663 210.037 11.0263 210.67C10.5863 211.303 9.90961 211.62 8.99628 211.62ZM8.99628 210.35C9.39628 210.35 9.67294 210.203 9.82628 209.91C9.97961 209.617 10.0563 209.203 10.0563 208.67V207.35C10.0563 206.817 9.97961 206.403 9.82628 206.11C9.67294 205.817 9.39628 205.67 8.99628 205.67C8.59628 205.67 8.31961 205.817 8.16628 206.11C8.01294 206.403 7.93628 206.817 7.93628 207.35V208.67C7.93628 209.203 8.01294 209.617 8.16628 209.91C8.31961 210.203 8.59628 210.35 8.99628 210.35ZM13.7824 211.5L18.6224 204.52H19.9424L15.1024 211.5H13.7824ZM14.2924 208.36C13.7057 208.36 13.259 208.193 12.9524 207.86C12.6457 207.527 12.4924 207.033 12.4924 206.38C12.4924 205.727 12.6457 205.233 12.9524 204.9C13.259 204.567 13.7057 204.4 14.2924 204.4C14.879 204.4 15.3257 204.567 15.6324 204.9C15.939 205.233 16.0924 205.727 16.0924 206.38C16.0924 207.033 15.939 207.527 15.6324 207.86C15.3257 208.193 14.879 208.36 14.2924 208.36ZM14.2924 207.5C14.4657 207.5 14.5957 207.433 14.6824 207.3C14.769 207.16 14.8124 206.94 14.8124 206.64V206.12C14.8124 205.82 14.769 205.603 14.6824 205.47C14.5957 205.33 14.4657 205.26 14.2924 205.26C14.119 205.26 13.989 205.33 13.9024 205.47C13.8157 205.603 13.7724 205.82 13.7724 206.12V206.64C13.7724 206.94 13.8157 207.16 13.9024 207.3C13.989 207.433 14.119 207.5 14.2924 207.5ZM19.4324 211.62C18.8457 211.62 18.399 211.453 18.0924 211.12C17.7857 210.787 17.6324 210.293 17.6324 209.64C17.6324 208.987 17.7857 208.493 18.0924 208.16C18.399 207.827 18.8457 207.66 19.4324 207.66C20.019 207.66 20.4657 207.827 20.7724 208.16C21.079 208.493 21.2324 208.987 21.2324 209.64C21.2324 210.293 21.079 210.787 20.7724 211.12C20.4657 211.453 20.019 211.62 19.4324 211.62ZM19.4324 210.76C19.6057 210.76 19.7357 210.693 19.8224 210.56C19.909 210.42 19.9524 210.2 19.9524 209.9V209.38C19.9524 209.08 19.909 208.863 19.8224 208.73C19.7357 208.59 19.6057 208.52 19.4324 208.52C19.259 208.52 19.129 208.59 19.0424 208.73C18.9557 208.863 18.9124 209.08 18.9124 209.38V209.9C18.9124 210.2 18.9557 210.42 19.0424 210.56C19.129 210.693 19.259 210.76 19.4324 210.76Z" fill="#CBD5E0"/>
<path d="M3.37018 161.5V160.16H0.300183V158.88L3.02018 154.52H4.80018V159H5.68018V160.16H4.80018V161.5H3.37018ZM1.50018 159H3.37018V156.07H3.27018L1.50018 159ZM8.99628 161.62C8.08294 161.62 7.40628 161.303 6.96628 160.67C6.52628 160.037 6.30628 159.15 6.30628 158.01C6.30628 156.87 6.52628 155.983 6.96628 155.35C7.40628 154.717 8.08294 154.4 8.99628 154.4C9.90961 154.4 10.5863 154.717 11.0263 155.35C11.4663 155.983 11.6863 156.87 11.6863 158.01C11.6863 159.15 11.4663 160.037 11.0263 160.67C10.5863 161.303 9.90961 161.62 8.99628 161.62ZM8.99628 160.35C9.39628 160.35 9.67294 160.203 9.82628 159.91C9.97961 159.617 10.0563 159.203 10.0563 158.67V157.35C10.0563 156.817 9.97961 156.403 9.82628 156.11C9.67294 155.817 9.39628 155.67 8.99628 155.67C8.59628 155.67 8.31961 155.817 8.16628 156.11C8.01294 156.403 7.93628 156.817 7.93628 157.35V158.67C7.93628 159.203 8.01294 159.617 8.16628 159.91C8.31961 160.203 8.59628 160.35 8.99628 160.35ZM13.7824 161.5L18.6224 154.52H19.9424L15.1024 161.5H13.7824ZM14.2924 158.36C13.7057 158.36 13.259 158.193 12.9524 157.86C12.6457 157.527 12.4924 157.033 12.4924 156.38C12.4924 155.727 12.6457 155.233 12.9524 154.9C13.259 154.567 13.7057 154.4 14.2924 154.4C14.879 154.4 15.3257 154.567 15.6324 154.9C15.939 155.233 16.0924 155.727 16.0924 156.38C16.0924 157.033 15.939 157.527 15.6324 157.86C15.3257 158.193 14.879 158.36 14.2924 158.36ZM14.2924 157.5C14.4657 157.5 14.5957 157.433 14.6824 157.3C14.769 157.16 14.8124 156.94 14.8124 156.64V156.12C14.8124 155.82 14.769 155.603 14.6824 155.47C14.5957 155.33 14.4657 155.26 14.2924 155.26C14.119 155.26 13.989 155.33 13.9024 155.47C13.8157 155.603 13.7724 155.82 13.7724 156.12V156.64C13.7724 156.94 13.8157 157.16 13.9024 157.3C13.989 157.433 14.119 157.5 14.2924 157.5ZM19.4324 161.62C18.8457 161.62 18.399 161.453 18.0924 161.12C17.7857 160.787 17.6324 160.293 17.6324 159.64C17.6324 158.987 17.7857 158.493 18.0924 158.16C18.399 157.827 18.8457 157.66 19.4324 157.66C20.019 157.66 20.4657 157.827 20.7724 158.16C21.079 158.493 21.2324 158.987 21.2324 159.64C21.2324 160.293 21.079 160.787 20.7724 161.12C20.4657 161.453 20.019 161.62 19.4324 161.62ZM19.4324 160.76C19.6057 160.76 19.7357 160.693 19.8224 160.56C19.909 160.42 19.9524 160.2 19.9524 159.9V159.38C19.9524 159.08 19.909 158.863 19.8224 158.73C19.7357 158.59 19.6057 158.52 19.4324 158.52C19.259 158.52 19.129 158.59 19.0424 158.73C18.9557 158.863 18.9124 159.08 18.9124 159.38V159.9C18.9124 160.2 18.9557 160.42 19.0424 160.56C19.129 160.693 19.259 160.76 19.4324 160.76Z" fill="#CBD5E0"/>
<path d="M3.04018 111.62C2.62685 111.62 2.25685 111.557 1.93018 111.43C1.60352 111.297 1.32685 111.11 1.10018 110.87C0.880183 110.623 0.710183 110.33 0.590183 109.99C0.47685 109.65 0.420183 109.27 0.420183 108.85C0.420183 108.363 0.493516 107.903 0.640183 107.47C0.793516 107.03 0.98685 106.627 1.22018 106.26C1.46018 105.887 1.72685 105.553 2.02018 105.26C2.32018 104.967 2.62018 104.72 2.92018 104.52H4.99018C4.56352 104.827 4.18018 105.12 3.84018 105.4C3.50018 105.673 3.20352 105.95 2.95018 106.23C2.70352 106.51 2.49685 106.797 2.33018 107.09C2.17018 107.377 2.05685 107.687 1.99018 108.02L2.08018 108.05C2.14018 107.917 2.21018 107.787 2.29018 107.66C2.37685 107.533 2.48018 107.423 2.60018 107.33C2.72685 107.23 2.87352 107.15 3.04018 107.09C3.20685 107.03 3.40018 107 3.62018 107C3.90685 107 4.17352 107.053 4.42018 107.16C4.67352 107.26 4.89018 107.403 5.07018 107.59C5.25685 107.777 5.40018 108.007 5.50018 108.28C5.60685 108.547 5.66018 108.843 5.66018 109.17C5.66018 109.53 5.59685 109.86 5.47018 110.16C5.35018 110.46 5.17352 110.72 4.94018 110.94C4.71352 111.153 4.44018 111.32 4.12018 111.44C3.80018 111.56 3.44018 111.62 3.04018 111.62ZM3.04018 110.45C3.37352 110.45 3.63352 110.36 3.82018 110.18C4.00685 109.993 4.10018 109.73 4.10018 109.39V109.21C4.10018 108.87 4.00685 108.61 3.82018 108.43C3.63352 108.243 3.37352 108.15 3.04018 108.15C2.70685 108.15 2.44685 108.243 2.26018 108.43C2.07352 108.61 1.98018 108.87 1.98018 109.21V109.39C1.98018 109.73 2.07352 109.993 2.26018 110.18C2.44685 110.36 2.70685 110.45 3.04018 110.45ZM8.99628 111.62C8.08294 111.62 7.40628 111.303 6.96628 110.67C6.52628 110.037 6.30628 109.15 6.30628 108.01C6.30628 106.87 6.52628 105.983 6.96628 105.35C7.40628 104.717 8.08294 104.4 8.99628 104.4C9.90961 104.4 10.5863 104.717 11.0263 105.35C11.4663 105.983 11.6863 106.87 11.6863 108.01C11.6863 109.15 11.4663 110.037 11.0263 110.67C10.5863 111.303 9.90961 111.62 8.99628 111.62ZM8.99628 110.35C9.39628 110.35 9.67294 110.203 9.82628 109.91C9.97961 109.617 10.0563 109.203 10.0563 108.67V107.35C10.0563 106.817 9.97961 106.403 9.82628 106.11C9.67294 105.817 9.39628 105.67 8.99628 105.67C8.59628 105.67 8.31961 105.817 8.16628 106.11C8.01294 106.403 7.93628 106.817 7.93628 107.35V108.67C7.93628 109.203 8.01294 109.617 8.16628 109.91C8.31961 110.203 8.59628 110.35 8.99628 110.35ZM13.7824 111.5L18.6224 104.52H19.9424L15.1024 111.5H13.7824ZM14.2924 108.36C13.7057 108.36 13.259 108.193 12.9524 107.86C12.6457 107.527 12.4924 107.033 12.4924 106.38C12.4924 105.727 12.6457 105.233 12.9524 104.9C13.259 104.567 13.7057 104.4 14.2924 104.4C14.879 104.4 15.3257 104.567 15.6324 104.9C15.939 105.233 16.0924 105.727 16.0924 106.38C16.0924 107.033 15.939 107.527 15.6324 107.86C15.3257 108.193 14.879 108.36 14.2924 108.36ZM14.2924 107.5C14.4657 107.5 14.5957 107.433 14.6824 107.3C14.769 107.16 14.8124 106.94 14.8124 106.64V106.12C14.8124 105.82 14.769 105.603 14.6824 105.47C14.5957 105.33 14.4657 105.26 14.2924 105.26C14.119 105.26 13.989 105.33 13.9024 105.47C13.8157 105.603 13.7724 105.82 13.7724 106.12V106.64C13.7724 106.94 13.8157 107.16 13.9024 107.3C13.989 107.433 14.119 107.5 14.2924 107.5ZM19.4324 111.62C18.8457 111.62 18.399 111.453 18.0924 111.12C17.7857 110.787 17.6324 110.293 17.6324 109.64C17.6324 108.987 17.7857 108.493 18.0924 108.16C18.399 107.827 18.8457 107.66 19.4324 107.66C20.019 107.66 20.4657 107.827 20.7724 108.16C21.079 108.493 21.2324 108.987 21.2324 109.64C21.2324 110.293 21.079 110.787 20.7724 111.12C20.4657 111.453 20.019 111.62 19.4324 111.62ZM19.4324 110.76C19.6057 110.76 19.7357 110.693 19.8224 110.56C19.909 110.42 19.9524 110.2 19.9524 109.9V109.38C19.9524 109.08 19.909 108.863 19.8224 108.73C19.7357 108.59 19.6057 108.52 19.4324 108.52C19.259 108.52 19.129 108.59 19.0424 108.73C18.9557 108.863 18.9124 109.08 18.9124 109.38V109.9C18.9124 110.2 18.9557 110.42 19.0424 110.56C19.129 110.693 19.259 110.76 19.4324 110.76Z" fill="#CBD5E0"/>
<path d="M3.00018 61.62C2.58685 61.62 2.21685 61.57 1.89018 61.47C1.57018 61.3633 1.30018 61.22 1.08018 61.04C0.860183 60.86 0.690183 60.6467 0.570183 60.4C0.45685 60.1533 0.400183 59.8833 0.400183 59.59C0.400183 59.1433 0.523516 58.78 0.770183 58.5C1.01685 58.2133 1.35018 58.0133 1.77018 57.9V57.82C1.43018 57.6933 1.15018 57.5 0.930183 57.24C0.71685 56.98 0.610183 56.6467 0.610183 56.24C0.610183 55.9733 0.660183 55.7267 0.760183 55.5C0.86685 55.2733 1.02018 55.08 1.22018 54.92C1.42685 54.7533 1.67685 54.6267 1.97018 54.54C2.27018 54.4467 2.61352 54.4 3.00018 54.4C3.38685 54.4 3.72685 54.4467 4.02018 54.54C4.32018 54.6267 4.57018 54.7533 4.77018 54.92C4.97685 55.08 5.13018 55.2733 5.23018 55.5C5.33685 55.7267 5.39018 55.9733 5.39018 56.24C5.39018 56.6467 5.28018 56.98 5.06018 57.24C4.84685 57.5 4.57018 57.6933 4.23018 57.82V57.9C4.65018 58.0133 4.98352 58.2133 5.23018 58.5C5.47685 58.78 5.60018 59.1433 5.60018 59.59C5.60018 59.8833 5.54018 60.1533 5.42018 60.4C5.30685 60.6467 5.14018 60.86 4.92018 61.04C4.70018 61.22 4.42685 61.3633 4.10018 61.47C3.78018 61.57 3.41352 61.62 3.00018 61.62ZM3.00018 60.47C3.33352 60.47 3.58685 60.3933 3.76018 60.24C3.94018 60.08 4.03018 59.86 4.03018 59.58V59.38C4.03018 59.1 3.94018 58.8833 3.76018 58.73C3.58685 58.57 3.33352 58.49 3.00018 58.49C2.66685 58.49 2.41018 58.57 2.23018 58.73C2.05685 58.8833 1.97018 59.1 1.97018 59.38V59.58C1.97018 59.86 2.05685 60.08 2.23018 60.24C2.41018 60.3933 2.66685 60.47 3.00018 60.47ZM3.00018 57.39C3.32018 57.39 3.56352 57.3167 3.73018 57.17C3.89685 57.0167 3.98018 56.81 3.98018 56.55V56.39C3.98018 56.13 3.89685 55.9267 3.73018 55.78C3.56352 55.6267 3.32018 55.55 3.00018 55.55C2.68018 55.55 2.43685 55.6267 2.27018 55.78C2.10352 55.9267 2.02018 56.13 2.02018 56.39V56.55C2.02018 56.81 2.10352 57.0167 2.27018 57.17C2.43685 57.3167 2.68018 57.39 3.00018 57.39ZM8.99628 61.62C8.08294 61.62 7.40628 61.3033 6.96628 60.67C6.52628 60.0367 6.30628 59.15 6.30628 58.01C6.30628 56.87 6.52628 55.9833 6.96628 55.35C7.40628 54.7167 8.08294 54.4 8.99628 54.4C9.90961 54.4 10.5863 54.7167 11.0263 55.35C11.4663 55.9833 11.6863 56.87 11.6863 58.01C11.6863 59.15 11.4663 60.0367 11.0263 60.67C10.5863 61.3033 9.90961 61.62 8.99628 61.62ZM8.99628 60.35C9.39628 60.35 9.67294 60.2033 9.82628 59.91C9.97961 59.6167 10.0563 59.2033 10.0563 58.67V57.35C10.0563 56.8167 9.97961 56.4033 9.82628 56.11C9.67294 55.8167 9.39628 55.67 8.99628 55.67C8.59628 55.67 8.31961 55.8167 8.16628 56.11C8.01294 56.4033 7.93628 56.8167 7.93628 57.35V58.67C7.93628 59.2033 8.01294 59.6167 8.16628 59.91C8.31961 60.2033 8.59628 60.35 8.99628 60.35ZM13.7824 61.5L18.6224 54.52H19.9424L15.1024 61.5H13.7824ZM14.2924 58.36C13.7057 58.36 13.259 58.1933 12.9524 57.86C12.6457 57.5267 12.4924 57.0333 12.4924 56.38C12.4924 55.7267 12.6457 55.2333 12.9524 54.9C13.259 54.5667 13.7057 54.4 14.2924 54.4C14.879 54.4 15.3257 54.5667 15.6324 54.9C15.939 55.2333 16.0924 55.7267 16.0924 56.38C16.0924 57.0333 15.939 57.5267 15.6324 57.86C15.3257 58.1933 14.879 58.36 14.2924 58.36ZM14.2924 57.5C14.4657 57.5 14.5957 57.4333 14.6824 57.3C14.769 57.16 14.8124 56.94 14.8124 56.64V56.12C14.8124 55.82 14.769 55.6033 14.6824 55.47C14.5957 55.33 14.4657 55.26 14.2924 55.26C14.119 55.26 13.989 55.33 13.9024 55.47C13.8157 55.6033 13.7724 55.82 13.7724 56.12V56.64C13.7724 56.94 13.8157 57.16 13.9024 57.3C13.989 57.4333 14.119 57.5 14.2924 57.5ZM19.4324 61.62C18.8457 61.62 18.399 61.4533 18.0924 61.12C17.7857 60.7867 17.6324 60.2933 17.6324 59.64C17.6324 58.9867 17.7857 58.4933 18.0924 58.16C18.399 57.8267 18.8457 57.66 19.4324 57.66C20.019 57.66 20.4657 57.8267 20.7724 58.16C21.079 58.4933 21.2324 58.9867 21.2324 59.64C21.2324 60.2933 21.079 60.7867 20.7724 61.12C20.4657 61.4533 20.019 61.62 19.4324 61.62ZM19.4324 60.76C19.6057 60.76 19.7357 60.6933 19.8224 60.56C19.909 60.42 19.9524 60.2 19.9524 59.9V59.38C19.9524 59.08 19.909 58.8633 19.8224 58.73C19.7357 58.59 19.6057 58.52 19.4324 58.52C19.259 58.52 19.129 58.59 19.0424 58.73C18.9557 58.8633 18.9124 59.08 18.9124 59.38V59.9C18.9124 60.2 18.9557 60.42 19.0424 60.56C19.129 60.6933 19.259 60.76 19.4324 60.76Z" fill="#CBD5E0"/>
<path d="M0.940122 11.5V10.29H2.82012V5.61H2.73012L1.31012 7.47L0.350122 6.72L2.02012 4.52H4.32012V10.29H5.80012V11.5H0.940122ZM8.99622 11.62C8.08288 11.62 7.40622 11.3033 6.96622 10.67C6.52622 10.0367 6.30622 9.15 6.30622 8.01C6.30622 6.87 6.52622 5.98333 6.96622 5.35C7.40622 4.71667 8.08288 4.4 8.99622 4.4C9.90955 4.4 10.5862 4.71667 11.0262 5.35C11.4662 5.98333 11.6862 6.87 11.6862 8.01C11.6862 9.15 11.4662 10.0367 11.0262 10.67C10.5862 11.3033 9.90955 11.62 8.99622 11.62ZM8.99622 10.35C9.39622 10.35 9.67288 10.2033 9.82622 9.91C9.97955 9.61667 10.0562 9.20333 10.0562 8.67V7.35C10.0562 6.81667 9.97955 6.40333 9.82622 6.11C9.67288 5.81667 9.39622 5.67 8.99622 5.67C8.59622 5.67 8.31955 5.81667 8.16622 6.11C8.01288 6.40333 7.93622 6.81667 7.93622 7.35V8.67C7.93622 9.20333 8.01288 9.61667 8.16622 9.91C8.31955 10.2033 8.59622 10.35 8.99622 10.35ZM14.9923 11.62C14.079 11.62 13.4023 11.3033 12.9623 10.67C12.5223 10.0367 12.3023 9.15 12.3023 8.01C12.3023 6.87 12.5223 5.98333 12.9623 5.35C13.4023 4.71667 14.079 4.4 14.9923 4.4C15.9056 4.4 16.5823 4.71667 17.0223 5.35C17.4623 5.98333 17.6823 6.87 17.6823 8.01C17.6823 9.15 17.4623 10.0367 17.0223 10.67C16.5823 11.3033 15.9056 11.62 14.9923 11.62ZM14.9923 10.35C15.3923 10.35 15.669 10.2033 15.8223 9.91C15.9756 9.61667 16.0523 9.20333 16.0523 8.67V7.35C16.0523 6.81667 15.9756 6.40333 15.8223 6.11C15.669 5.81667 15.3923 5.67 14.9923 5.67C14.5923 5.67 14.3156 5.81667 14.1623 6.11C14.009 6.40333 13.9323 6.81667 13.9323 7.35V8.67C13.9323 9.20333 14.009 9.61667 14.1623 9.91C14.3156 10.2033 14.5923 10.35 14.9923 10.35ZM19.7784 11.5L24.6184 4.52H25.9384L21.0984 11.5H19.7784ZM20.2884 8.36C19.7017 8.36 19.2551 8.19333 18.9484 7.86C18.6417 7.52667 18.4884 7.03333 18.4884 6.38C18.4884 5.72667 18.6417 5.23333 18.9484 4.9C19.2551 4.56667 19.7017 4.4 20.2884 4.4C20.8751 4.4 21.3217 4.56667 21.6284 4.9C21.9351 5.23333 22.0884 5.72667 22.0884 6.38C22.0884 7.03333 21.9351 7.52667 21.6284 7.86C21.3217 8.19333 20.8751 8.36 20.2884 8.36ZM20.2884 7.5C20.4617 7.5 20.5917 7.43333 20.6784 7.3C20.7651 7.16 20.8084 6.94 20.8084 6.64V6.12C20.8084 5.82 20.7651 5.60333 20.6784 5.47C20.5917 5.33 20.4617 5.26 20.2884 5.26C20.1151 5.26 19.9851 5.33 19.8984 5.47C19.8117 5.60333 19.7684 5.82 19.7684 6.12V6.64C19.7684 6.94 19.8117 7.16 19.8984 7.3C19.9851 7.43333 20.1151 7.5 20.2884 7.5ZM25.4284 11.62C24.8417 11.62 24.3951 11.4533 24.0884 11.12C23.7817 10.7867 23.6284 10.2933 23.6284 9.64C23.6284 8.98667 23.7817 8.49333 24.0884 8.16C24.3951 7.82667 24.8417 7.66 25.4284 7.66C26.0151 7.66 26.4617 7.82667 26.7684 8.16C27.0751 8.49333 27.2284 8.98667 27.2284 9.64C27.2284 10.2933 27.0751 10.7867 26.7684 11.12C26.4617 11.4533 26.0151 11.62 25.4284 11.62ZM25.4284 10.76C25.6017 10.76 25.7317 10.6933 25.8184 10.56C25.9051 10.42 25.9484 10.2 25.9484 9.9V9.38C25.9484 9.08 25.9051 8.86333 25.8184 8.73C25.7317 8.59 25.6017 8.52 25.4284 8.52C25.2551 8.52 25.1251 8.59 25.0384 8.73C24.9517 8.86333 24.9084 9.08 24.9084 9.38V9.9C24.9084 10.2 24.9517 10.42 25.0384 10.56C25.1251 10.6933 25.2551 10.76 25.4284 10.76Z" fill="#CBD5E0"/>
<line x1="41.5001" y1="257.5" x2="880.5" y2="257.5" stroke="#E2E8F0" stroke-linecap="round" stroke-linejoin="round" stroke-dasharray="3.5 3.5"/>
<line x1="41.5001" y1="207.5" x2="880.5" y2="207.5" stroke="#E2E8F0" stroke-linecap="round" stroke-linejoin="round" stroke-dasharray="3.5 3.5"/>
<line x1="41.5001" y1="157.5" x2="880.5" y2="157.5" stroke="#E2E8F0" stroke-linecap="round" stroke-linejoin="round" stroke-dasharray="3.5 3.5"/>
<line x1="41.5001" y1="107.5" x2="880.5" y2="107.5" stroke="#E2E8F0" stroke-linecap="round" stroke-linejoin="round" stroke-dasharray="3.5 3.5"/>
<line x1="41.5001" y1="57.5" x2="880.5" y2="57.5001" stroke="#E2E8F0" stroke-linecap="round" stroke-linejoin="round" stroke-dasharray="3.5 3.5"/>
<line x1="41.5001" y1="7.5" x2="880.5" y2="7.50007" stroke="#E2E8F0" stroke-linecap="round" stroke-linejoin="round" stroke-dasharray="3.5 3.5"/>
<path d="M766.203 177.545C809.811 164.448 860.904 183.003 881 193.917V257.75H41.0001V8C83.201 15.4922 110.33 77.0946 117.113 116.22C122.644 148.132 122.89 170.886 152.28 177.545C181.827 184.24 216.859 162.936 246.5 134.077C270.213 110.99 305.615 124.457 320.352 134.077C346.476 150.819 389.51 162.172 424.074 145.079C467.28 123.713 491.144 129.817 545.653 145.079C600.163 160.341 594.636 170.053 640.103 193.917C685.57 217.781 711.694 193.917 766.203 177.545Z" fill="url(#paint0_linear_1_248)"/>
<path d="M881 193.917C860.904 183.003 809.811 164.448 766.203 177.545C711.694 193.917 685.57 217.781 640.103 193.917C594.636 170.053 600.163 160.341 545.653 145.079C491.144 129.817 467.28 123.713 424.074 145.079C389.51 162.172 346.476 150.819 320.352 134.077C305.615 124.457 270.213 110.99 246.5 134.077C216.859 162.936 181.827 184.24 152.28 177.545C122.89 170.886 122.644 148.132 117.113 116.22C110.33 77.0946 83.2011 15.4922 41.0001 8" stroke="#2D3748" stroke-width="3"/>
<path d="M154.914 150.457C111.642 137.369 60.9413 155.91 41.0001 166.817V257.5H880V42.9074C838.124 50.3941 802.55 48.4526 795.82 87.5498C790.331 119.438 790.087 142.175 760.923 148.83C731.603 155.52 714.559 116.387 685.146 87.5498C661.615 64.4798 621.986 94.5 607.362 104.113C581.439 120.842 522.507 84.3408 496.968 55.648C460.5 14.6781 412.543 10.9308 376.323 55.648C340.104 100.365 304.178 63.7034 259.061 87.5498C213.944 111.396 209.005 166.817 154.914 150.457Z" fill="url(#paint1_linear_1_248)"/>
<path d="M41.0001 167C60.9413 156.079 111.642 137.515 154.914 150.619C209.005 167 213.944 111.509 259.061 87.6318C304.178 63.7548 340.104 100.464 376.323 55.6892C412.543 10.9147 460.5 14.6668 496.968 55.6892C522.507 84.4187 581.439 120.967 607.362 104.216C621.986 94.5909 661.615 64.5322 685.146 87.6318C714.559 116.506 731.603 155.689 760.923 148.99C790.087 142.327 790.331 119.56 795.82 87.6318C802.55 48.4846 838.124 50.4285 880 42.9323" stroke="#216ED7" stroke-width="3"/>
<defs>
<linearGradient id="paint0_linear_1_248" x1="461" y1="8" x2="461" y2="257.75" gradientUnits="userSpaceOnUse">
<stop stop-color="#2D3748" stop-opacity="0.36"/>
<stop offset="1" stop-color="#2D3748" stop-opacity="0"/>
</linearGradient>
<linearGradient id="paint1_linear_1_248" x1="460.5" y1="23.5" x2="460.5" y2="257.5" gradientUnits="userSpaceOnUse">
<stop stop-color="#4FD1C5" stop-opacity="0.54"/>
<stop offset="1" stop-color="#4FD1C5" stop-opacity="0"/>
</linearGradient>
</defs>
</svg>
