<svg width="35" height="36" viewBox="0 0 35 36" fill="none" xmlns="http://www.w3.org/2000/svg">
<rect y="0.5" width="35" height="35" rx="12" fill="white"/>
<path fill-rule="evenodd" clip-rule="evenodd" d="M9.88254 21.1551C9.7595 21.086 9.64083 21.0152 9.5264 20.9427C8.23321 20.1238 7.5 19.0923 7.5 17.9999C7.5 16.9076 8.23321 15.8761 9.5264 15.0571C9.64083 14.9847 9.7595 14.914 9.88254 14.8447C9.84454 14.7089 9.81063 14.5748 9.78096 14.4427C9.44546 12.9492 9.65642 11.7013 10.4289 10.9289C11.2013 10.1564 12.4492 9.94546 13.9427 10.281C14.0748 10.3106 14.2089 10.3445 14.3447 10.3825C14.414 10.2595 14.4847 10.1408 14.5571 10.0265C15.3761 8.73321 16.4076 8 17.4999 8C18.5923 8 19.6238 8.73321 20.4427 10.0265C20.5152 10.1408 20.586 10.2595 20.6551 10.3825C20.7911 10.3445 20.9251 10.3106 21.0571 10.281C22.5508 9.94546 23.7986 10.1566 24.571 10.9289C25.3434 11.7013 25.5543 12.9492 25.2189 14.4427C25.1892 14.5748 25.1553 14.7089 25.1172 14.8447C25.2402 14.914 25.359 14.9847 25.4733 15.0571C26.7667 15.8761 27.5 16.9076 27.5 17.9999C27.5 19.0923 26.7667 20.1238 25.4733 20.9427C25.359 21.0152 25.2402 21.086 25.1172 21.1551C25.1553 21.2911 25.1892 21.4251 25.2189 21.5571C25.5543 23.0508 25.3434 24.2986 24.571 25.071C23.7986 25.8434 22.5508 26.0543 21.0571 25.7189C20.9251 25.6892 20.7911 25.6553 20.6551 25.6172C20.586 25.7402 20.5152 25.859 20.4427 25.9733C19.6238 27.2667 18.5923 28 17.4999 28C16.4076 28 15.3761 27.2667 14.5571 25.9733C14.4847 25.859 14.414 25.7402 14.3447 25.6172C14.2089 25.6553 14.0748 25.6892 13.9427 25.7189C12.4492 26.0543 11.2013 25.8434 10.4289 25.071C9.65642 24.2986 9.44546 23.0508 9.78096 21.5571C9.81063 21.4251 9.84454 21.2911 9.88254 21.1551ZM10.1051 15.5314C10.0366 15.5716 9.96977 15.6125 9.90428 15.6539C8.85608 16.3176 8.20627 17.1146 8.20627 17.9999C8.20627 18.8853 8.85608 19.6822 9.90428 20.3461C9.96977 20.3874 10.0366 20.4283 10.1051 20.4686C10.3932 19.6811 10.8078 18.8469 11.3373 17.9999C10.8078 17.153 10.3932 16.3187 10.1051 15.5314ZM14.0166 11.0254C13.9397 11.0054 13.8634 10.9871 13.788 10.9701C12.5773 10.6982 11.5544 10.8023 10.9283 11.4283C10.3023 12.0544 10.1982 13.0773 10.4701 14.288C10.4871 14.3634 10.5054 14.4397 10.5254 14.5166C11.2859 14.1634 12.169 13.8667 13.1423 13.6423C13.3667 12.669 13.6634 11.7859 14.0166 11.0254ZM19.9686 10.6051C19.9283 10.5366 19.8874 10.4698 19.8461 10.4043C19.1822 9.35608 18.3853 8.70627 17.4999 8.70627C16.6146 8.70627 15.8176 9.35608 15.1539 10.4043C15.1125 10.4698 15.0716 10.5366 15.0314 10.6051C15.8187 10.8932 16.653 11.3078 17.4999 11.8373C18.3469 11.3078 19.1811 10.8932 19.9686 10.6051ZM24.4745 14.5166C24.4944 14.4397 24.5129 14.3634 24.5299 14.288C24.8016 13.0773 24.6976 12.0544 24.0716 11.4283C23.4456 10.8023 22.4225 10.6982 21.2119 10.9701C21.1364 10.9871 21.0601 11.0054 20.9833 11.0254C21.3364 11.7859 21.6331 12.669 21.8576 13.6423C22.8309 13.8667 23.7139 14.1634 24.4745 14.5166ZM24.8947 20.4686C24.9632 20.4283 25.0302 20.3874 25.0956 20.3461C26.1438 19.6822 26.7936 18.8853 26.7936 17.9999C26.7936 17.1146 26.1438 16.3176 25.0956 15.6539C25.0302 15.6125 24.9632 15.5716 24.8947 15.5314C24.6067 16.3187 24.1922 17.153 23.6627 17.9999C24.1922 18.8469 24.6067 19.6811 24.8947 20.4686ZM20.9833 24.9745C21.0601 24.9944 21.1364 25.0129 21.2119 25.0299C22.4225 25.3016 23.4456 25.1977 24.0716 24.5716C24.6977 23.9456 24.8016 22.9225 24.5299 21.7119C24.5129 21.6364 24.4944 21.5601 24.4745 21.4833C23.7139 21.8364 22.8309 22.1331 21.8576 22.3576C21.6331 23.3309 21.3364 24.2139 20.9833 24.9745ZM15.0314 25.3947C15.0716 25.4632 15.1125 25.5301 15.1539 25.5956C15.8176 26.6438 16.6146 27.2936 17.4999 27.2936C18.3853 27.2936 19.1822 26.6438 19.8461 25.5956C19.8874 25.5301 19.9283 25.4632 19.9686 25.3947C19.1811 25.1067 18.3469 24.6922 17.4999 24.1627C16.653 24.6922 15.8187 25.1067 15.0314 25.3947ZM10.5254 21.4833C10.5054 21.5601 10.4871 21.6364 10.4701 21.7119C10.1982 22.9225 10.3023 23.9456 10.9283 24.5716C11.5544 25.1977 12.5773 25.3016 13.788 25.0299C13.8634 25.0129 13.9397 24.9944 14.0166 24.9745C13.6634 24.2139 13.3667 23.3309 13.1423 22.3576C12.169 22.1331 11.2859 21.8364 10.5254 21.4833ZM12.9849 14.4042C12.1498 14.6151 11.3913 14.8831 10.7344 15.1975C10.9767 15.8845 11.3234 16.6102 11.7647 17.3498C12.0673 16.9115 12.3995 16.4721 12.7597 16.0366C12.813 15.4736 12.8889 14.9281 12.9849 14.4042ZM11.7647 18.65C11.3234 19.3896 10.9767 20.1153 10.7344 20.8023C11.3913 21.1168 12.1498 21.3847 12.9849 21.5957C12.8889 21.0718 12.813 20.5263 12.7597 19.9634C12.3995 19.5276 12.0673 19.0883 11.7647 18.65ZM16.8498 12.2647C16.1102 11.8234 15.3845 11.4767 14.6975 11.2344C14.3831 11.8913 14.1151 12.6498 13.9042 13.4849C14.4281 13.3889 14.9736 13.313 15.5366 13.2597C15.9721 12.8995 16.4115 12.5673 16.8498 12.2647ZM21.0957 13.4849C20.8847 12.6498 20.6168 11.8913 20.3023 11.2344C19.6153 11.4767 18.8896 11.8234 18.15 12.2647C18.5883 12.5673 19.0276 12.8995 19.4634 13.2597C20.0263 13.313 20.5718 13.3889 21.0957 13.4849ZM23.2352 17.3498C23.6765 16.6102 24.0233 15.8845 24.2654 15.1975C23.6084 14.8831 22.8502 14.6151 22.015 14.4042C22.1111 14.9281 22.1868 15.4736 22.2403 16.0366C22.6005 16.4721 22.9326 16.9115 23.2352 17.3498ZM22.015 21.5957C22.8502 21.3847 23.6084 21.1168 24.2654 20.8023C24.0233 20.1153 23.6765 19.3896 23.2352 18.65C22.9326 19.0883 22.6005 19.5276 22.2403 19.9634C22.1868 20.5263 22.1111 21.0718 22.015 21.5957ZM18.15 23.7352C18.8896 24.1765 19.6153 24.5233 20.3023 24.7654C20.6168 24.1084 20.8847 23.3502 21.0957 22.515C20.5718 22.6111 20.0263 22.6868 19.4634 22.7403C19.0276 23.1005 18.5883 23.4326 18.15 23.7352ZM13.9042 22.515C14.1151 23.3502 14.3831 24.1084 14.6975 24.7654C15.3845 24.5233 16.1102 24.1765 16.8498 23.7352C16.4115 23.4326 15.9721 23.1005 15.5366 22.7403C14.9736 22.6868 14.4281 22.6111 13.9042 22.515ZM12.68 17.2811C12.5024 17.5209 12.3339 17.7607 12.1749 17.9999C12.3339 18.2392 12.5024 18.4791 12.68 18.7188C12.672 18.4814 12.668 18.2416 12.668 17.9999C12.668 17.7582 12.672 17.5186 12.68 17.2811ZM13.7345 14.2345C13.6779 14.5161 13.6273 14.805 13.5834 15.1001C13.7456 14.9266 13.9122 14.7542 14.0831 14.5831C14.2542 14.4122 14.4266 14.2456 14.6001 14.0834C14.305 14.1273 14.0161 14.1779 13.7345 14.2345ZM13.5834 20.8998C13.6273 21.195 13.6779 21.4837 13.7345 21.7654C14.0161 21.8221 14.305 21.8725 14.6001 21.9164C14.4266 21.7543 14.2542 21.5876 14.0831 21.4167C13.9122 21.2458 13.7456 21.0734 13.5834 20.8998ZM17.4999 12.6749C17.2607 12.8339 17.0209 13.0024 16.7811 13.18C17.0186 13.172 17.2582 13.168 17.4999 13.168C17.7416 13.168 17.9814 13.172 18.2188 13.18C17.9791 13.0024 17.7392 12.8339 17.4999 12.6749ZM21.2654 14.2345C20.9837 14.1779 20.695 14.1273 20.3998 14.0834C20.5734 14.2456 20.7458 14.4122 20.9167 14.5831C21.0876 14.7542 21.2543 14.9266 21.4164 15.1001C21.3725 14.805 21.3221 14.5161 21.2654 14.2345ZM22.825 17.9999C22.666 17.7607 22.4974 17.5209 22.3198 17.2811C22.3279 17.5186 22.332 17.7582 22.332 17.9999C22.332 18.2416 22.3279 18.4814 22.3198 18.7188C22.4974 18.4791 22.666 18.2392 22.825 17.9999ZM21.2654 21.7654C21.3221 21.4837 21.3725 21.195 21.4164 20.8998C21.2543 21.0734 21.0876 21.2458 20.9167 21.4167C20.7458 21.5876 20.5734 21.7543 20.3998 21.9164C20.695 21.8725 20.9837 21.8221 21.2654 21.7654ZM17.4999 23.325C17.7392 23.166 17.9791 22.9974 18.2188 22.8198C17.9814 22.8279 17.7416 22.832 17.4999 22.832C17.2582 22.832 17.0186 22.8279 16.7811 22.8198C17.0209 22.9974 17.2607 23.166 17.4999 23.325ZM15.9772 18.7107L15.4495 20.0051L14.8114 19.745L16.3484 15.975H16.9864L18.5234 19.745L17.8853 20.0051L17.3575 18.7107H15.9772ZM17.0767 18.0215L16.6673 17.0176L16.2581 18.0215H17.0767ZM18.878 15.919H19.5671V19.9362H18.878V15.919Z" fill="#216ED7"/>
</svg>
