<svg width="30" height="31" viewBox="0 0 30 31" fill="none" xmlns="http://www.w3.org/2000/svg">
<rect y="0.5" width="30" height="30" rx="12" fill="#216ED7"/>
<g clip-path="url(#clip0_2_213)">
<path d="M15.1629 10.9675C15.1193 10.9258 15.0612 10.9025 15.0009 10.9025C14.9405 10.9025 14.8825 10.9258 14.8389 10.9675L9.44531 16.1199C9.42241 16.1418 9.40418 16.1682 9.39175 16.1973C9.37931 16.2265 9.37291 16.2578 9.37295 16.2895L9.37207 21.1253C9.37207 21.3739 9.47084 21.6124 9.64666 21.7882C9.82247 21.964 10.0609 22.0628 10.3096 22.0628H13.125C13.2493 22.0628 13.3685 22.0134 13.4565 21.9255C13.5444 21.8376 13.5937 21.7184 13.5937 21.594V17.6097C13.5937 17.5475 13.6184 17.4879 13.6624 17.4439C13.7063 17.4 13.766 17.3753 13.8281 17.3753H16.1719C16.234 17.3753 16.2936 17.4 16.3376 17.4439C16.3816 17.4879 16.4062 17.5475 16.4062 17.6097V21.594C16.4062 21.7184 16.4556 21.8376 16.5435 21.9255C16.6314 22.0134 16.7507 22.0628 16.875 22.0628H19.6893C19.9379 22.0628 20.1764 21.964 20.3522 21.7882C20.528 21.6124 20.6268 21.3739 20.6268 21.1253V16.2895C20.6268 16.2578 20.6204 16.2265 20.608 16.1973C20.5955 16.1682 20.5773 16.1418 20.5544 16.1199L15.1629 10.9675Z" fill="white"/>
<path d="M21.8825 15.1537L19.6911 13.0572V9.87585C19.6911 9.75153 19.6417 9.63231 19.5538 9.5444C19.4659 9.45649 19.3467 9.4071 19.2223 9.4071H17.8161C17.6918 9.4071 17.5725 9.45649 17.4846 9.5444C17.3967 9.63231 17.3473 9.75153 17.3473 9.87585V10.8134L15.6505 9.19089C15.4917 9.03035 15.2556 8.93835 15.0004 8.93835C14.7461 8.93835 14.5105 9.03035 14.3517 9.19119L8.1203 15.1531C7.93807 15.3289 7.91522 15.618 8.08104 15.8085C8.12268 15.8565 8.17367 15.8956 8.23089 15.9234C8.28812 15.9511 8.3504 15.9669 8.41392 15.9698C8.47745 15.9727 8.54091 15.9627 8.60043 15.9403C8.65995 15.9179 8.71429 15.8836 8.76014 15.8395L14.8392 10.0305C14.8829 9.98882 14.9409 9.96553 15.0013 9.96553C15.0616 9.96553 15.1196 9.98882 15.1633 10.0305L21.2429 15.8395C21.3325 15.9254 21.4525 15.9723 21.5765 15.9699C21.7006 15.9674 21.8186 15.9159 21.9048 15.8266C22.0846 15.6403 22.0697 15.3327 21.8825 15.1537Z" fill="white"/>
</g>
<defs>
<clipPath id="clip0_2_213">
<rect width="15" height="15" fill="white" transform="translate(7.5 8)"/>
</clipPath>
</defs>
</svg>
