<svg width="42" height="42" viewBox="0 0 42 42" fill="none" xmlns="http://www.w3.org/2000/svg">
<g filter="url(#filter0_d_2_201)">
<rect x="6" y="2.5" width="30" height="30" rx="12" fill="white"/>
</g>
<path d="M15.9427 19.7239L16.2023 19.4642C16.2861 19.3804 16.3333 19.2668 16.3333 19.1483V16.6667C16.3333 14.0893 18.4226 12 21 12C23.5773 12 25.6666 14.0893 25.6666 16.6667V19.1483C25.6666 19.2668 25.7137 19.3804 25.7975 19.4642L26.0572 19.7239C26.1365 19.8032 26.1767 19.8434 26.2083 19.8875C26.2682 19.9709 26.3075 20.067 26.3242 20.1683C26.333 20.2219 26.3331 20.2782 26.3331 20.3906C26.3331 20.6477 26.3331 20.7762 26.2981 20.8799C26.2316 21.0771 26.0773 21.232 25.88 21.2985C25.7768 21.3333 25.6486 21.3333 25.3936 21.3333H23V22C23 23.1046 22.1045 24 21 24C19.8954 24 19 23.1046 19 22V21.3333H16.6063C16.3513 21.3333 16.2237 21.3333 16.1204 21.2985C15.9232 21.232 15.7681 21.0771 15.7016 20.8798C15.6666 20.7762 15.6666 20.6477 15.6666 20.3906C15.6666 20.2782 15.6666 20.2219 15.6754 20.1683C15.6921 20.067 15.7317 19.9709 15.7916 19.8875C15.8233 19.8434 15.8631 19.8034 15.9427 19.7239Z" fill="#216ED7"/>
<path d="M23 21.3333V22C23 23.1046 22.1045 24 21 24C19.8954 24 19 23.1046 19 22V21.3333M23 21.3333H19M23 21.3333H25.3936C25.6486 21.3333 25.7768 21.3333 25.88 21.2985C26.0773 21.232 26.2316 21.0771 26.2981 20.8799C26.3331 20.7762 26.3331 20.6477 26.3331 20.3906C26.3331 20.2782 26.333 20.2219 26.3242 20.1683C26.3075 20.067 26.2682 19.9709 26.2083 19.8875C26.1767 19.8434 26.1365 19.8032 26.0572 19.7239L25.7975 19.4642C25.7137 19.3804 25.6666 19.2668 25.6666 19.1483V16.6667C25.6666 14.0893 23.5773 12 21 12C18.4226 12 16.3333 14.0893 16.3333 16.6667V19.1483C16.3333 19.2668 16.2861 19.3804 16.2023 19.4642L15.9427 19.7239C15.8631 19.8034 15.8233 19.8434 15.7916 19.8875C15.7317 19.9709 15.6921 20.067 15.6754 20.1683C15.6666 20.2219 15.6666 20.2782 15.6666 20.3906C15.6666 20.6477 15.6666 20.7762 15.7016 20.8798C15.7681 21.0771 15.9232 21.232 16.1204 21.2985C16.2237 21.3333 16.3513 21.3333 16.6063 21.3333H19" stroke="white" stroke-width="0.4" stroke-linecap="round" stroke-linejoin="round"/>
<defs>
<filter id="filter0_d_2_201" x="0.5" y="0.5" width="41" height="41" filterUnits="userSpaceOnUse" color-interpolation-filters="sRGB">
<feFlood flood-opacity="0" result="BackgroundImageFix"/>
<feColorMatrix in="SourceAlpha" type="matrix" values="0 0 0 0 0 0 0 0 0 0 0 0 0 0 0 0 0 0 127 0" result="hardAlpha"/>
<feOffset dy="3.5"/>
<feGaussianBlur stdDeviation="2.75"/>
<feColorMatrix type="matrix" values="0 0 0 0 0 0 0 0 0 0 0 0 0 0 0 0 0 0 0.02 0"/>
<feBlend mode="normal" in2="BackgroundImageFix" result="effect1_dropShadow_2_201"/>
<feBlend mode="normal" in="SourceGraphic" in2="effect1_dropShadow_2_201" result="shape"/>
</filter>
</defs>
</svg>
