<svg width="42" height="42" viewBox="0 0 42 42" fill="none" xmlns="http://www.w3.org/2000/svg">
<g filter="url(#filter0_d_2_189)">
<rect x="6" y="2.5" width="30" height="30" rx="12" fill="white"/>
</g>
<path d="M27.2567 13.5314C27.2229 13.4657 27.1741 13.409 27.1143 13.3657C27.0545 13.3225 26.9853 13.294 26.9123 13.2826C26.8394 13.2712 26.7648 13.2771 26.6946 13.3C26.6244 13.3229 26.5607 13.362 26.5084 13.4142L24.7084 15.2153C24.6201 15.3024 24.501 15.3512 24.3769 15.3512C24.2529 15.3512 24.1338 15.3024 24.0455 15.2153L23.2673 14.436C23.2238 14.3925 23.1893 14.3408 23.1657 14.284C23.1421 14.2271 23.13 14.1661 23.13 14.1046C23.13 14.043 23.1421 13.982 23.1657 13.9251C23.1893 13.8683 23.2238 13.8166 23.2673 13.7731L25.0597 11.9804C25.1134 11.9267 25.1533 11.8607 25.1759 11.7881C25.1984 11.7156 25.203 11.6386 25.1893 11.5639C25.1755 11.4892 25.1437 11.4189 25.0968 11.3592C25.0498 11.2995 24.989 11.252 24.9197 11.221C23.5659 10.6157 21.876 10.9316 20.8105 11.9892C19.9052 12.888 19.6354 14.2925 20.0707 15.8426C20.0942 15.9252 20.0944 16.0128 20.0711 16.0955C20.0479 16.1783 20.0023 16.253 19.9392 16.3113L15.0619 20.7659C14.8719 20.9365 14.7186 21.144 14.6114 21.3758C14.5043 21.6076 14.4454 21.8588 14.4386 22.1141C14.4317 22.3693 14.4768 22.6233 14.5713 22.8605C14.6658 23.0978 14.8077 23.3132 14.9882 23.4938C15.1687 23.6745 15.3842 23.8164 15.6213 23.911C15.8585 24.0056 16.1125 24.0509 16.3678 24.0441C16.623 24.0373 16.8742 23.9786 17.1061 23.8716C17.3379 23.7645 17.5455 23.6113 17.7162 23.4214L22.2185 18.5332C22.276 18.471 22.3495 18.4256 22.4309 18.402C22.5123 18.3784 22.5986 18.3775 22.6805 18.3993C23.1218 18.5202 23.577 18.583 24.0346 18.5859C25.0131 18.5859 25.8718 18.2692 26.4912 17.659C27.6381 16.529 27.813 14.6124 27.2567 13.5314ZM16.4151 23.1006C16.2221 23.1217 16.0274 23.0823 15.8578 22.988C15.6881 22.8937 15.552 22.749 15.468 22.574C15.3841 22.399 15.3566 22.2022 15.3892 22.0109C15.4219 21.8196 15.5131 21.6431 15.6503 21.5058C15.7876 21.3686 15.964 21.2773 16.1553 21.2445C16.3466 21.2118 16.5434 21.2393 16.7184 21.3232C16.8935 21.407 17.0382 21.5431 17.1326 21.7128C17.2269 21.8824 17.2664 22.0771 17.2454 22.27C17.2223 22.4823 17.1274 22.6804 16.9764 22.8314C16.8254 22.9825 16.6274 23.0774 16.4151 23.1006Z" fill="#216ED7"/>
<defs>
<filter id="filter0_d_2_189" x="0.5" y="0.5" width="41" height="41" filterUnits="userSpaceOnUse" color-interpolation-filters="sRGB">
<feFlood flood-opacity="0" result="BackgroundImageFix"/>
<feColorMatrix in="SourceAlpha" type="matrix" values="0 0 0 0 0 0 0 0 0 0 0 0 0 0 0 0 0 0 127 0" result="hardAlpha"/>
<feOffset dy="3.5"/>
<feGaussianBlur stdDeviation="2.75"/>
<feColorMatrix type="matrix" values="0 0 0 0 0 0 0 0 0 0 0 0 0 0 0 0 0 0 0.02 0"/>
<feBlend mode="normal" in2="BackgroundImageFix" result="effect1_dropShadow_2_189"/>
<feBlend mode="normal" in="SourceGraphic" in2="effect1_dropShadow_2_189" result="shape"/>
</filter>
</defs>
</svg>
