<svg width="42" height="42" viewBox="0 0 42 42" fill="none" xmlns="http://www.w3.org/2000/svg">
<g filter="url(#filter0_d_2_182)">
<rect x="6" y="2.5" width="30" height="30" rx="12" fill="white"/>
</g>
<path d="M23.2452 11.8917C22.6751 11.2762 21.8788 10.9373 20.9999 10.9373C20.1163 10.9373 19.3174 11.2742 18.7499 11.8859C18.1763 12.5043 17.8968 13.3449 17.9624 14.2525C18.0925 16.0431 19.4551 17.4998 20.9999 17.4998C22.5447 17.4998 23.905 16.0434 24.0371 14.2531C24.1036 13.3537 23.8224 12.5149 23.2452 11.8917Z" fill="#216ED7"/>
<path d="M26.1562 24.0616H15.8437C15.7087 24.0634 15.575 24.035 15.4524 23.9786C15.3297 23.9222 15.2212 23.8392 15.1347 23.7356C14.9443 23.5079 14.8675 23.1971 14.9243 22.8827C15.1716 21.5111 15.9433 20.3588 17.1562 19.5499C18.2337 18.8319 19.5987 18.4366 20.9999 18.4366C22.4012 18.4366 23.7661 18.8322 24.8437 19.5499C26.0566 20.3585 26.8282 21.5108 27.0755 22.8824C27.1323 23.1968 27.0556 23.5076 26.8652 23.7353C26.7787 23.839 26.6702 23.922 26.5475 23.9785C26.4249 24.035 26.2912 24.0634 26.1562 24.0616Z" fill="#216ED7"/>
<defs>
<filter id="filter0_d_2_182" x="0.5" y="0.5" width="41" height="41" filterUnits="userSpaceOnUse" color-interpolation-filters="sRGB">
<feFlood flood-opacity="0" result="BackgroundImageFix"/>
<feColorMatrix in="SourceAlpha" type="matrix" values="0 0 0 0 0 0 0 0 0 0 0 0 0 0 0 0 0 0 127 0" result="hardAlpha"/>
<feOffset dy="3.5"/>
<feGaussianBlur stdDeviation="2.75"/>
<feColorMatrix type="matrix" values="0 0 0 0 0 0 0 0 0 0 0 0 0 0 0 0 0 0 0.02 0"/>
<feBlend mode="normal" in2="BackgroundImageFix" result="effect1_dropShadow_2_182"/>
<feBlend mode="normal" in="SourceGraphic" in2="effect1_dropShadow_2_182" result="shape"/>
</filter>
</defs>
</svg>
