<svg width="42" height="41" viewBox="0 0 42 41" fill="none" xmlns="http://www.w3.org/2000/svg">
<g filter="url(#filter0_d_2_174)">
<rect x="6.43176" y="2" width="30" height="30" rx="12" fill="white"/>
</g>
<path d="M21.1743 13.8631C22.8378 13.8318 24.2102 15.1558 24.2415 16.8194C24.2415 16.8493 24.2415 16.8776 24.2415 16.9075C24.26 18.5711 22.9274 19.9349 21.2638 19.9534C19.6002 19.9719 18.2363 18.6392 18.2179 16.9757C18.2179 16.953 18.2179 16.9302 18.2179 16.9075C18.1994 15.2524 19.5192 13.8928 21.1743 13.8631ZM21.4968 8.91202C21.0479 8.89638 20.5975 8.91913 20.1528 8.97885C19.9951 9.00007 19.8658 9.11097 19.8189 9.26148L19.3757 10.7049C19.3373 10.8271 19.2436 10.9251 19.1228 10.9678C18.914 11.043 18.7094 11.1268 18.5091 11.2221C18.3926 11.2788 18.2562 11.276 18.1426 11.215L16.8101 10.5074C16.6694 10.4336 16.4989 10.4478 16.3739 10.5444C15.8028 10.9777 15.2942 11.4877 14.8594 12.0574C14.7629 12.1838 14.7486 12.3529 14.8225 12.4935L15.5314 13.8275C15.5925 13.9397 15.5982 14.0761 15.5457 14.1926C15.449 14.3929 15.3638 14.5975 15.2899 14.8063C15.2473 14.9285 15.1493 15.0223 15.0257 15.0592L13.5837 15.5038C13.4317 15.5493 13.3208 15.68 13.301 15.8363C13.2043 16.5481 13.2043 17.2669 13.301 17.9787C13.3208 18.1349 13.4317 18.2656 13.5837 18.3111L15.0257 18.7557C15.1493 18.7927 15.2473 18.8864 15.2899 19.0086C15.3638 19.2175 15.449 19.4221 15.5457 19.6223C15.5982 19.7389 15.5925 19.8752 15.5314 19.9875L14.8225 21.3215C14.7486 21.4607 14.7629 21.6311 14.8594 21.7576C15.2942 22.3273 15.8028 22.8359 16.3739 23.2706C16.4989 23.3673 16.6694 23.38 16.8101 23.3076L18.1426 22.6001C18.2562 22.539 18.3926 22.5361 18.5091 22.5916C18.7094 22.6867 18.914 22.7719 19.1228 22.8459C19.2436 22.8884 19.3373 22.9865 19.3757 23.1087L19.8189 24.5521C19.8658 24.7041 19.9951 24.8149 20.1528 24.8348C20.8631 24.9314 21.5834 24.9314 22.2938 24.8348C22.45 24.8149 22.5807 24.7041 22.6276 24.5521L23.0708 23.1087C23.1092 22.9865 23.2029 22.8884 23.3237 22.8459C23.5326 22.7719 23.7386 22.6867 23.9375 22.5916C24.054 22.5361 24.189 22.539 24.3026 22.6001L25.6366 23.3076C25.7772 23.38 25.9476 23.3673 26.0727 23.2706C26.6438 22.8359 27.1524 22.3273 27.5871 21.7576C27.6838 21.6311 27.6979 21.4607 27.6241 21.3215L26.9166 19.9875C26.854 19.8752 26.8498 19.7389 26.9024 19.6223C26.9975 19.4221 27.0828 19.2175 27.1567 19.0086C27.1992 18.8864 27.2973 18.7927 27.4209 18.7557L28.8643 18.3111C29.0149 18.2642 29.1257 18.1349 29.147 17.9787C29.2422 17.2669 29.2422 16.5481 29.147 15.8363C29.1257 15.68 29.0149 15.5493 28.8643 15.5038L27.4209 15.0592C27.2973 15.0223 27.1992 14.9285 27.1567 14.8063C27.0828 14.5975 26.9975 14.3929 26.9024 14.1926C26.8498 14.0761 26.854 13.9397 26.9166 13.8275L27.6241 12.4935C27.6979 12.3529 27.6838 12.1838 27.5871 12.0574C27.1524 11.4877 26.6438 10.9777 26.0727 10.5444C25.9476 10.4478 25.7772 10.4336 25.6366 10.5074L24.3026 11.215C24.189 11.276 24.054 11.2788 23.9375 11.2235C23.7386 11.1282 23.5326 11.043 23.3237 10.9692C23.2029 10.9265 23.1092 10.8285 23.0708 10.7049L22.6276 9.2629C22.5807 9.11097 22.45 9.00007 22.2938 8.97885C22.0295 8.9433 21.7639 8.92055 21.4968 8.91202Z" fill="#216ED7"/>
<defs>
<filter id="filter0_d_2_174" x="0.931762" y="-2.38419e-07" width="41" height="41" filterUnits="userSpaceOnUse" color-interpolation-filters="sRGB">
<feFlood flood-opacity="0" result="BackgroundImageFix"/>
<feColorMatrix in="SourceAlpha" type="matrix" values="0 0 0 0 0 0 0 0 0 0 0 0 0 0 0 0 0 0 127 0" result="hardAlpha"/>
<feOffset dy="3.5"/>
<feGaussianBlur stdDeviation="2.75"/>
<feColorMatrix type="matrix" values="0 0 0 0 0 0 0 0 0 0 0 0 0 0 0 0 0 0 0.02 0"/>
<feBlend mode="normal" in2="BackgroundImageFix" result="effect1_dropShadow_2_174"/>
<feBlend mode="normal" in="SourceGraphic" in2="effect1_dropShadow_2_174" result="shape"/>
</filter>
</defs>
</svg>
